<svg width="418" height="110" viewBox="0 0 418 110" fill="none" xmlns="http://www.w3.org/2000/svg">
<path d="M21.2578 56.1686C21.7169 56.3121 22.176 56.4126 22.6353 56.4699C23.0945 56.4987 23.5536 56.5131 24.0129 56.5131C25.1608 56.5131 26.2657 56.355 27.3276 56.0394C28.3893 55.7238 29.3796 55.279 30.2978 54.7051C31.2449 54.1022 32.0772 53.3848 32.7946 52.5526C33.5409 51.6916 34.1435 50.7445 34.6026 49.7113L43.2125 58.3641C42.1219 59.9138 40.8592 61.3056 39.4243 62.5397C38.0179 63.7738 36.4825 64.8214 34.818 65.6823C33.1821 66.5432 31.446 67.189 29.6091 67.6195C27.8011 68.0788 25.9357 68.3082 24.0129 68.3082C20.7698 68.3082 17.7134 67.7056 14.8435 66.5002C12.0023 65.2948 9.50546 63.616 7.35304 61.4637C5.22931 59.3112 3.55042 56.7568 2.31635 53.801C1.08231 50.8162 0.465271 47.5447 0.465271 43.9859C0.465271 40.341 1.08231 37.012 2.31635 33.9986C3.55042 30.9851 5.22931 28.4167 7.35304 26.2929C9.50546 24.1692 12.0023 22.519 14.8435 21.3423C17.7134 20.1657 20.7698 19.5772 24.0129 19.5772C25.9357 19.5772 27.8154 19.8069 29.6523 20.2662C31.4889 20.7253 33.2251 21.3855 34.861 22.2464C36.5255 23.1073 38.0754 24.1692 39.5103 25.432C40.9453 26.666 42.2081 28.0579 43.2986 29.6076L21.2578 56.1686ZM27.2844 31.9322C26.7391 31.7314 26.1938 31.6023 25.6488 31.5448C25.1321 31.4875 24.5868 31.4588 24.0129 31.4588C22.4057 31.4588 20.8846 31.7601 19.4497 32.3627C18.0434 32.9366 16.8094 33.7691 15.7475 34.8595C14.7143 35.9501 13.8964 37.2703 13.2937 38.82C12.691 40.341 12.3897 42.0631 12.3897 43.9859C12.3897 44.4164 12.4041 44.9042 12.4328 45.4495C12.4902 45.9947 12.5619 46.5544 12.648 47.1283C12.7628 47.6736 12.8919 48.2046 13.0354 48.7212C13.1789 49.2378 13.3655 49.6969 13.5951 50.0987L27.2844 31.9322ZM86.1319 30.4255V42.1347H49.9711V30.4255H86.1319ZM107.742 67.4473H95.904V3.00362H107.742V67.4473ZM135.078 56.1686C135.537 56.3121 135.997 56.4126 136.456 56.4699C136.915 56.4987 137.374 56.5131 137.833 56.5131C138.981 56.5131 140.086 56.355 141.148 56.0394C142.21 55.7238 143.2 55.279 144.118 54.7051C145.065 54.1022 145.897 53.3848 146.615 52.5526C147.361 51.6916 147.964 50.7445 148.423 49.7113L157.033 58.3641C155.942 59.9138 154.679 61.3056 153.245 62.5397C151.838 63.7738 150.303 64.8214 148.638 65.6823C147.002 66.5432 145.266 67.189 143.429 67.6195C141.621 68.0788 139.756 68.3082 137.833 68.3082C134.59 68.3082 131.534 67.7056 128.664 66.5002C125.823 65.2948 123.326 63.616 121.173 61.4637C119.05 59.3112 117.371 56.7568 116.137 53.801C114.903 50.8162 114.286 47.5447 114.286 43.9859C114.286 40.341 114.903 37.012 116.137 33.9986C117.371 30.9851 119.05 28.4167 121.173 26.2929C123.326 24.1692 125.823 22.519 128.664 21.3423C131.534 20.1657 134.59 19.5772 137.833 19.5772C139.756 19.5772 141.636 19.8069 143.473 20.2662C145.309 20.7253 147.046 21.3855 148.681 22.2464C150.346 23.1073 151.896 24.1692 153.331 25.432C154.766 26.666 156.028 28.0579 157.119 29.6076L135.078 56.1686ZM141.105 31.9322C140.56 31.7314 140.014 31.6023 139.469 31.5448C138.952 31.4875 138.407 31.4588 137.833 31.4588C136.226 31.4588 134.705 31.7601 133.27 32.3627C131.864 32.9366 130.63 33.7691 129.568 34.8595C128.535 35.9501 127.717 37.2703 127.114 38.82C126.511 40.341 126.21 42.0631 126.21 43.9859C126.21 44.4164 126.224 44.9042 126.253 45.4495C126.31 45.9947 126.382 46.5544 126.468 47.1283C126.583 47.6736 126.712 48.2046 126.856 48.7212C126.999 49.2378 127.186 49.6969 127.415 50.0987L141.105 31.9322ZM207.357 67.4473H204.515L199.952 61.1192C198.833 62.1236 197.642 63.0707 196.379 63.9605C195.145 64.8214 193.839 65.5818 192.462 66.2419C191.084 66.8734 189.664 67.3755 188.2 67.7486C186.765 68.1218 185.301 68.3082 183.809 68.3082C180.566 68.3082 177.51 67.7629 174.64 66.6724C171.798 65.5818 169.302 64.0034 167.149 61.9371C165.025 59.8421 163.347 57.2878 162.112 54.2744C160.878 51.261 160.261 47.8316 160.261 43.9859C160.261 40.3986 160.878 37.1125 162.112 34.1277C163.347 31.1143 165.025 28.5316 167.149 26.379C169.302 24.2265 171.798 22.562 174.64 21.3855C177.51 20.1801 180.566 19.5772 183.809 19.5772C185.301 19.5772 186.779 19.7639 188.243 20.1371C189.707 20.51 191.127 21.0266 192.505 21.6868C193.882 22.3469 195.188 23.1216 196.422 24.0114C197.685 24.901 198.862 25.8624 199.952 26.8957L204.515 21.4285H207.357V67.4473ZM195.518 43.9859C195.518 42.3787 195.202 40.829 194.571 39.3366C193.968 37.8156 193.136 36.481 192.074 35.3331C191.012 34.1564 189.764 33.2238 188.329 32.5351C186.923 31.8174 185.416 31.4588 183.809 31.4588C182.202 31.4588 180.681 31.7314 179.246 32.2767C177.84 32.822 176.605 33.6254 175.544 34.6873C174.51 35.7493 173.693 37.0693 173.09 38.6479C172.487 40.1976 172.186 41.9769 172.186 43.9859C172.186 45.9947 172.487 47.7884 173.09 49.367C173.693 50.9167 174.51 52.2224 175.544 53.2843C176.605 54.3462 177.84 55.1498 179.246 55.6951C180.681 56.2404 182.202 56.5131 183.809 56.5131C185.416 56.5131 186.923 56.1686 188.329 55.4798C189.764 54.7624 191.012 53.8296 192.074 52.6817C193.136 51.505 193.968 50.1706 194.571 48.6782C195.202 47.1572 195.518 45.5929 195.518 43.9859ZM228.105 67.4473H216.354V21.3423H219.194L223.069 26.8095C224.962 25.0875 227.116 23.7674 229.527 22.849C231.938 21.9019 234.433 21.4285 237.017 21.4285H247.391V33.1377H237.017C235.782 33.1377 234.621 33.3673 233.53 33.8264C232.439 34.2855 231.493 34.917 230.689 35.7206C229.886 36.5242 229.254 37.4711 228.795 38.5617C228.335 39.6523 228.105 40.8147 228.105 42.0488V67.4473ZM264.612 67.4473H252.86V21.3423H255.701L259.575 25.8194C261.469 24.0974 263.607 22.7774 265.989 21.8589C268.398 20.9118 270.911 20.4384 273.523 20.4384C276.335 20.4384 278.989 20.9837 281.486 22.0742C283.983 23.136 286.163 24.614 288.03 26.5082C289.895 28.3735 291.358 30.569 292.421 33.0947C293.512 35.5915 294.056 38.2604 294.056 41.1017V67.4473H282.304V41.1017C282.304 39.8963 282.075 38.7627 281.616 37.7008C281.156 36.6102 280.525 35.6631 279.721 34.8595C278.918 34.0561 277.984 33.4246 276.924 32.9655C275.861 32.5062 274.728 32.2767 273.523 32.2767C272.289 32.2767 271.125 32.5062 270.036 32.9655C268.945 33.4246 267.997 34.0561 267.195 34.8595C266.39 35.6631 265.76 36.6102 265.299 37.7008C264.841 38.7627 264.612 39.8963 264.612 41.1017V67.4473ZM316.313 8.81514C316.313 9.90572 316.097 10.9247 315.667 11.8718C315.264 12.8186 314.706 13.6509 313.988 14.3685C313.271 15.0573 312.423 15.6169 311.448 16.0474C310.501 16.4492 309.482 16.65 308.391 16.65C307.3 16.65 306.267 16.4492 305.292 16.0474C304.345 15.6169 303.512 15.0573 302.795 14.3685C302.105 13.6509 301.548 12.8186 301.116 11.8718C300.715 10.9247 300.514 9.90572 300.514 8.81514C300.514 7.75343 300.715 6.74881 301.116 5.80171C301.548 4.82596 302.105 3.9937 302.795 3.30492C303.512 2.58749 304.345 2.02788 305.292 1.62607C306.267 1.19564 307.3 0.980385 308.391 0.980385C309.482 0.980385 310.501 1.19564 311.448 1.62607C312.423 2.02788 313.271 2.58749 313.988 3.30492C314.706 3.9937 315.264 4.82596 315.667 5.80171C316.097 6.74881 316.313 7.75343 316.313 8.81514ZM314.29 67.4473H302.451V21.3423H314.29V67.4473ZM335.039 67.4473H323.287V21.3423H326.128L330.002 25.8194C331.896 24.0974 334.034 22.7774 336.416 21.8589C338.828 20.9118 341.338 20.4384 343.95 20.4384C346.762 20.4384 349.416 20.9837 351.913 22.0742C354.411 23.136 356.59 24.614 358.457 26.5082C360.322 28.3735 361.785 30.569 362.848 33.0947C363.939 35.5915 364.483 38.2604 364.483 41.1017V67.4473H352.731V41.1017C352.731 39.8963 352.502 38.7627 352.043 37.7008C351.583 36.6102 350.952 35.6631 350.148 34.8595C349.346 34.0561 348.413 33.4246 347.351 32.9655C346.288 32.5062 345.156 32.2767 343.95 32.2767C342.716 32.2767 341.554 32.5062 340.463 32.9655C339.372 33.4246 338.424 34.0561 337.622 34.8595C336.817 35.6631 336.187 36.6102 335.726 37.7008C335.268 38.7627 335.039 39.8963 335.039 41.1017V67.4473ZM405.682 43.9859C405.682 42.3787 405.365 40.829 404.734 39.3366C404.13 37.8156 403.299 36.481 402.237 35.3331C401.175 34.1564 399.927 33.2238 398.492 32.5351C397.086 31.8174 395.578 31.4588 393.972 31.4588C392.365 31.4588 390.844 31.7314 389.409 32.2767C388.003 32.822 386.769 33.6254 385.706 34.6873C384.673 35.7493 383.855 37.0693 383.253 38.6479C382.649 40.1976 382.349 41.9769 382.349 43.9859C382.349 45.9088 382.649 47.6449 383.253 49.1949C383.855 50.7159 384.673 52.0216 385.706 53.1122C386.769 54.2028 388.003 55.0493 389.409 55.6519C390.844 56.2261 392.365 56.5131 393.972 56.5131C395.578 56.5131 397.086 56.1686 398.492 55.4798C399.927 54.7624 401.175 53.8296 402.237 52.6817C403.299 51.505 404.13 50.1706 404.734 48.6782C405.365 47.1572 405.682 45.5929 405.682 43.9859ZM417.52 61.6358C417.52 64.8787 416.903 67.9208 415.669 70.762C414.434 73.6033 412.742 76.0858 410.588 78.2094C408.466 80.3333 405.968 82.0121 403.099 83.2462C400.258 84.4803 397.214 85.0972 393.972 85.0972L388.073 85.0112V73.2588L393.886 73.345C395.722 73.345 397.287 73.101 398.578 72.6133C399.87 72.1539 400.961 71.5081 401.849 70.6759C402.739 69.8725 403.443 68.9397 403.958 67.8778C404.505 66.8159 404.935 65.6966 405.25 64.5201C404.792 65.2662 404.13 65.8833 403.271 66.3711C402.409 66.8304 401.448 67.2033 400.386 67.4903C399.354 67.8061 398.263 68.0213 397.115 68.1361C395.995 68.2509 394.948 68.3082 393.972 68.3082C390.729 68.3082 387.672 67.7486 384.803 66.6294C381.962 65.5101 379.464 63.9173 377.313 61.8509C375.188 59.7559 373.509 57.2019 372.275 54.1884C371.04 51.175 370.425 47.7741 370.425 43.9859C370.425 40.5132 371.04 37.2846 372.275 34.2999C373.509 31.3153 375.188 28.7323 377.313 26.5512C379.464 24.37 381.962 22.6625 384.803 21.4285C387.672 20.1944 390.729 19.5772 393.972 19.5772C395.464 19.5772 396.943 19.7639 398.406 20.1371C399.87 20.51 401.289 21.0266 402.667 21.6868C404.044 22.3469 405.351 23.1216 406.586 24.0114C407.849 24.901 409.026 25.8624 410.114 26.8957L414.679 21.4285H417.52V61.6358Z" fill="#000000"/>
<mask id="path-2-outside-1_349_12" maskUnits="userSpaceOnUse" x="2.46527" y="74.0261" width="377" height="36" fill="black">
<rect fill="white" x="2.46527" y="74.0261" width="377" height="36"/>
<path d="M3.98527 108.026V76.3461H7.21927V104.924H22.2673V108.026H3.98527ZM36.0719 108.686C33.7546 108.686 31.7453 108.173 30.0439 107.146C28.3573 106.119 27.0446 104.675 26.1059 102.812C25.1673 100.949 24.6979 98.7641 24.6979 96.2561C24.6979 93.6601 25.1599 91.4161 26.0839 89.5241C27.0079 87.6321 28.3059 86.1728 29.9779 85.1461C31.6646 84.1195 33.6519 83.6061 35.9399 83.6061C38.2866 83.6061 40.2886 84.1488 41.9459 85.2341C43.6033 86.3048 44.8573 87.8448 45.7079 89.8541C46.5586 91.8635 46.9473 94.2615 46.8739 97.0481H43.5739V95.9041C43.5153 92.8241 42.8479 90.4995 41.5719 88.9301C40.3106 87.3608 38.4626 86.5761 36.0279 86.5761C33.4759 86.5761 31.5179 87.4048 30.1539 89.0621C28.8046 90.7195 28.1299 93.0808 28.1299 96.1461C28.1299 99.1381 28.8046 101.463 30.1539 103.12C31.5179 104.763 33.4466 105.584 35.9399 105.584C37.6413 105.584 39.1226 105.195 40.3839 104.418C41.6599 103.626 42.6646 102.489 43.3979 101.008L46.4119 102.174C45.4733 104.242 44.0873 105.848 42.2539 106.992C40.4353 108.121 38.3746 108.686 36.0719 108.686ZM26.9859 97.0481V94.3421H45.1359V97.0481H26.9859ZM58.1245 108.686C56.3352 108.686 54.8319 108.363 53.6145 107.718C52.4119 107.073 51.5099 106.215 50.9085 105.144C50.3072 104.073 50.0065 102.907 50.0065 101.646C50.0065 100.355 50.2632 99.2555 50.7765 98.3461C51.3045 97.4221 52.0159 96.6668 52.9105 96.0801C53.8199 95.4935 54.8685 95.0461 56.0565 94.7381C57.2592 94.4448 58.5865 94.1881 60.0385 93.9681C61.5052 93.7335 62.9352 93.5355 64.3285 93.3741C65.7365 93.1981 66.9685 93.0295 68.0245 92.8681L66.8805 93.5721C66.9245 91.2255 66.4699 89.4875 65.5165 88.3581C64.5632 87.2288 62.9059 86.6641 60.5445 86.6641C58.9165 86.6641 57.5379 87.0308 56.4085 87.7641C55.2939 88.4975 54.5092 89.6561 54.0545 91.2401L50.9085 90.3161C51.4512 88.1895 52.5439 86.5395 54.1865 85.3661C55.8292 84.1928 57.9632 83.6061 60.5885 83.6061C62.7592 83.6061 64.5999 84.0168 66.1105 84.8381C67.6359 85.6448 68.7139 86.8181 69.3445 88.3581C69.6379 89.0475 69.8285 89.8175 69.9165 90.6681C70.0045 91.5188 70.0485 92.3841 70.0485 93.2641V108.026H67.1665V102.064L68.0025 102.416C67.1959 104.455 65.9419 106.009 64.2405 107.08C62.5392 108.151 60.5005 108.686 58.1245 108.686ZM58.4985 105.892C60.0092 105.892 61.3292 105.621 62.4585 105.078C63.5879 104.535 64.4972 103.795 65.1865 102.856C65.8759 101.903 66.3232 100.832 66.5285 99.6441C66.7045 98.8815 66.7999 98.0455 66.8145 97.1361C66.8292 96.2121 66.8365 95.5228 66.8365 95.0681L68.0685 95.7061C66.9685 95.8528 65.7732 95.9995 64.4825 96.1461C63.2065 96.2928 61.9452 96.4615 60.6985 96.6521C59.4665 96.8428 58.3519 97.0701 57.3545 97.3341C56.6799 97.5248 56.0272 97.7961 55.3965 98.1481C54.7659 98.4855 54.2452 98.9401 53.8345 99.5121C53.4385 100.084 53.2405 100.795 53.2405 101.646C53.2405 102.335 53.4092 103.003 53.7465 103.648C54.0985 104.293 54.6559 104.829 55.4185 105.254C56.1959 105.679 57.2225 105.892 58.4985 105.892ZM75.7757 108.026V84.2661H78.6797V89.9861L78.1077 89.2381C78.3717 88.5341 78.7164 87.8888 79.1417 87.3021C79.5671 86.7008 80.0291 86.2095 80.5277 85.8281C81.1437 85.2855 81.8624 84.8748 82.6837 84.5961C83.5051 84.3028 84.3337 84.1341 85.1697 84.0901C86.0057 84.0315 86.7684 84.0901 87.4577 84.2661V87.3021C86.5924 87.0821 85.6464 87.0308 84.6197 87.1481C83.5931 87.2655 82.6471 87.6761 81.7817 88.3801C80.9897 88.9961 80.3957 89.7368 79.9997 90.6021C79.6037 91.4528 79.3397 92.3621 79.2077 93.3301C79.0757 94.2835 79.0097 95.2295 79.0097 96.1681V108.026H75.7757ZM108.791 108.026V95.9041C108.791 94.5841 108.667 93.3741 108.417 92.2741C108.168 91.1595 107.765 90.1915 107.207 89.3701C106.665 88.5341 105.953 87.8888 105.073 87.4341C104.208 86.9795 103.152 86.7521 101.905 86.7521C100.761 86.7521 99.7492 86.9501 98.8692 87.3461C98.0039 87.7421 97.2705 88.3141 96.6692 89.0621C96.0825 89.7955 95.6352 90.6901 95.3272 91.7461C95.0192 92.8021 94.8652 94.0048 94.8652 95.3541L92.5772 94.8481C92.5772 92.4135 93.0025 90.3675 93.8532 88.7101C94.7039 87.0528 95.8772 85.7988 97.3732 84.9481C98.8692 84.0975 100.585 83.6721 102.521 83.6721C103.944 83.6721 105.183 83.8921 106.239 84.3321C107.31 84.7721 108.212 85.3661 108.945 86.1141C109.693 86.8621 110.295 87.7201 110.749 88.6881C111.204 89.6415 111.534 90.6608 111.739 91.7461C111.945 92.8168 112.047 93.8875 112.047 94.9581V108.026H108.791ZM91.6092 108.026V84.2661H94.5352V90.1181H94.8652V108.026H91.6092ZM134.493 108.004L134.515 105.056L148.837 92.1201C150.069 91.0055 150.883 89.9495 151.279 88.9521C151.69 87.9401 151.895 86.8841 151.895 85.7841C151.895 84.4788 151.587 83.2981 150.971 82.2421C150.355 81.1861 149.527 80.3501 148.485 79.7341C147.444 79.1035 146.278 78.7881 144.987 78.7881C143.638 78.7881 142.435 79.1108 141.379 79.7561C140.323 80.4015 139.487 81.2521 138.871 82.3081C138.27 83.3641 137.977 84.5155 137.991 85.7621H134.691C134.691 83.8408 135.146 82.1175 136.055 80.5921C136.965 79.0668 138.197 77.8715 139.751 77.0061C141.306 76.1261 143.066 75.6861 145.031 75.6861C146.953 75.6861 148.676 76.1408 150.201 77.0501C151.741 77.9448 152.951 79.1621 153.831 80.7021C154.726 82.2275 155.173 83.9288 155.173 85.8061C155.173 87.1261 155.012 88.2921 154.689 89.3041C154.381 90.3015 153.89 91.2328 153.215 92.0981C152.555 92.9488 151.712 93.8288 150.685 94.7381L137.969 106.222L137.463 104.902H155.173V108.004H134.493ZM173.556 108.026V101.888H158.728V98.8081L169.332 76.3461H172.962L162.358 98.8081H173.556V89.5681H176.812V98.8081H180.266V101.888H176.812V108.026H173.556ZM193.569 76.3461H196.891L188.443 108.026H185.121L193.569 76.3461ZM204.313 108.026L215.973 79.4921H201.299V76.3461H219.427V79.4921L207.789 108.026H204.313ZM255.149 108.686C251.995 108.686 249.333 107.989 247.163 106.596C244.992 105.188 243.349 103.245 242.235 100.766C241.12 98.2875 240.563 95.4275 240.563 92.1861C240.563 88.9448 241.12 86.0848 242.235 83.6061C243.349 81.1275 244.992 79.1915 247.163 77.7981C249.333 76.3901 251.995 75.6861 255.149 75.6861C258.317 75.6861 260.979 76.3901 263.135 77.7981C265.305 79.1915 266.948 81.1275 268.063 83.6061C269.192 86.0848 269.757 88.9448 269.757 92.1861C269.757 95.4275 269.192 98.2875 268.063 100.766C266.948 103.245 265.305 105.188 263.135 106.596C260.979 107.989 258.317 108.686 255.149 108.686ZM255.149 105.584C257.627 105.584 259.695 105.019 261.353 103.89C263.01 102.761 264.249 101.191 265.071 99.1821C265.907 97.1581 266.325 94.8261 266.325 92.1861C266.325 89.5461 265.907 87.2215 265.071 85.2121C264.249 83.2028 263.01 81.6335 261.353 80.5041C259.695 79.3748 257.627 78.8028 255.149 78.7881C252.67 78.7881 250.609 79.3528 248.967 80.4821C247.324 81.6115 246.085 83.1881 245.249 85.2121C244.427 87.2215 244.009 89.5461 243.995 92.1861C243.98 94.8261 244.383 97.1508 245.205 99.1601C246.041 101.155 247.287 102.724 248.945 103.868C250.602 104.997 252.67 105.569 255.149 105.584ZM291.322 108.026V95.9041C291.322 94.5841 291.198 93.3741 290.948 92.2741C290.699 91.1595 290.296 90.1915 289.738 89.3701C289.196 88.5341 288.484 87.8888 287.604 87.4341C286.739 86.9795 285.683 86.7521 284.436 86.7521C283.292 86.7521 282.28 86.9501 281.4 87.3461C280.535 87.7421 279.802 88.3141 279.2 89.0621C278.614 89.7955 278.166 90.6901 277.858 91.7461C277.55 92.8021 277.396 94.0048 277.396 95.3541L275.108 94.8481C275.108 92.4135 275.534 90.3675 276.384 88.7101C277.235 87.0528 278.408 85.7988 279.904 84.9481C281.4 84.0975 283.116 83.6721 285.052 83.6721C286.475 83.6721 287.714 83.8921 288.77 84.3321C289.841 84.7721 290.743 85.3661 291.476 86.1141C292.224 86.8621 292.826 87.7201 293.28 88.6881C293.735 89.6415 294.065 90.6608 294.27 91.7461C294.476 92.8168 294.578 93.8875 294.578 94.9581V108.026H291.322ZM274.14 108.026V84.2661H277.066V90.1181H277.396V108.026H274.14ZM300.727 108.026V75.6861H303.961V108.026H300.727ZM310.997 79.7561V76.1261H314.231V79.7561H310.997ZM310.997 108.026V84.2661H314.231V108.026H310.997ZM337.987 108.026V95.9041C337.987 94.5841 337.862 93.3741 337.613 92.2741C337.363 91.1595 336.96 90.1915 336.403 89.3701C335.86 88.5341 335.149 87.8888 334.269 87.4341C333.403 86.9795 332.347 86.7521 331.101 86.7521C329.957 86.7521 328.945 86.9501 328.065 87.3461C327.199 87.7421 326.466 88.3141 325.865 89.0621C325.278 89.7955 324.831 90.6901 324.523 91.7461C324.215 92.8021 324.061 94.0048 324.061 95.3541L321.773 94.8481C321.773 92.4135 322.198 90.3675 323.049 88.7101C323.899 87.0528 325.073 85.7988 326.569 84.9481C328.065 84.0975 329.781 83.6721 331.717 83.6721C333.139 83.6721 334.379 83.8921 335.435 84.3321C336.505 84.7721 337.407 85.3661 338.141 86.1141C338.889 86.8621 339.49 87.7201 339.945 88.6881C340.399 89.6415 340.729 90.6608 340.935 91.7461C341.14 92.8168 341.243 93.8875 341.243 94.9581V108.026H337.987ZM320.805 108.026V84.2661H323.731V90.1181H324.061V108.026H320.805ZM356.877 108.686C354.559 108.686 352.55 108.173 350.849 107.146C349.162 106.119 347.849 104.675 346.911 102.812C345.972 100.949 345.503 98.7641 345.503 96.2561C345.503 93.6601 345.965 91.4161 346.889 89.5241C347.813 87.6321 349.111 86.1728 350.783 85.1461C352.469 84.1195 354.457 83.6061 356.745 83.6061C359.091 83.6061 361.093 84.1488 362.751 85.2341C364.408 86.3048 365.662 87.8448 366.513 89.8541C367.363 91.8635 367.752 94.2615 367.679 97.0481H364.379V95.9041C364.32 92.8241 363.653 90.4995 362.377 88.9301C361.115 87.3608 359.267 86.5761 356.833 86.5761C354.281 86.5761 352.323 87.4048 350.959 89.0621C349.609 90.7195 348.935 93.0808 348.935 96.1461C348.935 99.1381 349.609 101.463 350.959 103.12C352.323 104.763 354.251 105.584 356.745 105.584C358.446 105.584 359.927 105.195 361.189 104.418C362.465 103.626 363.469 102.489 364.203 101.008L367.217 102.174C366.278 104.242 364.892 105.848 363.059 106.992C361.24 108.121 359.179 108.686 356.877 108.686ZM347.791 97.0481V94.3421H365.941V97.0481H347.791ZM374.761 108.026V104.396H377.995V108.026H374.761ZM374.761 100.106V76.3461H377.995V100.106H374.761Z"/>
</mask>
<path d="M3.98527 108.026V76.3461H7.21927V104.924H22.2673V108.026H3.98527ZM36.0719 108.686C33.7546 108.686 31.7453 108.173 30.0439 107.146C28.3573 106.119 27.0446 104.675 26.1059 102.812C25.1673 100.949 24.6979 98.7641 24.6979 96.2561C24.6979 93.6601 25.1599 91.4161 26.0839 89.5241C27.0079 87.6321 28.3059 86.1728 29.9779 85.1461C31.6646 84.1195 33.6519 83.6061 35.9399 83.6061C38.2866 83.6061 40.2886 84.1488 41.9459 85.2341C43.6033 86.3048 44.8573 87.8448 45.7079 89.8541C46.5586 91.8635 46.9473 94.2615 46.8739 97.0481H43.5739V95.9041C43.5153 92.8241 42.8479 90.4995 41.5719 88.9301C40.3106 87.3608 38.4626 86.5761 36.0279 86.5761C33.4759 86.5761 31.5179 87.4048 30.1539 89.0621C28.8046 90.7195 28.1299 93.0808 28.1299 96.1461C28.1299 99.1381 28.8046 101.463 30.1539 103.12C31.5179 104.763 33.4466 105.584 35.9399 105.584C37.6413 105.584 39.1226 105.195 40.3839 104.418C41.6599 103.626 42.6646 102.489 43.3979 101.008L46.4119 102.174C45.4733 104.242 44.0873 105.848 42.2539 106.992C40.4353 108.121 38.3746 108.686 36.0719 108.686ZM26.9859 97.0481V94.3421H45.1359V97.0481H26.9859ZM58.1245 108.686C56.3352 108.686 54.8319 108.363 53.6145 107.718C52.4119 107.073 51.5099 106.215 50.9085 105.144C50.3072 104.073 50.0065 102.907 50.0065 101.646C50.0065 100.355 50.2632 99.2555 50.7765 98.3461C51.3045 97.4221 52.0159 96.6668 52.9105 96.0801C53.8199 95.4935 54.8685 95.0461 56.0565 94.7381C57.2592 94.4448 58.5865 94.1881 60.0385 93.9681C61.5052 93.7335 62.9352 93.5355 64.3285 93.3741C65.7365 93.1981 66.9685 93.0295 68.0245 92.8681L66.8805 93.5721C66.9245 91.2255 66.4699 89.4875 65.5165 88.3581C64.5632 87.2288 62.9059 86.6641 60.5445 86.6641C58.9165 86.6641 57.5379 87.0308 56.4085 87.7641C55.2939 88.4975 54.5092 89.6561 54.0545 91.2401L50.9085 90.3161C51.4512 88.1895 52.5439 86.5395 54.1865 85.3661C55.8292 84.1928 57.9632 83.6061 60.5885 83.6061C62.7592 83.6061 64.5999 84.0168 66.1105 84.8381C67.6359 85.6448 68.7139 86.8181 69.3445 88.3581C69.6379 89.0475 69.8285 89.8175 69.9165 90.6681C70.0045 91.5188 70.0485 92.3841 70.0485 93.2641V108.026H67.1665V102.064L68.0025 102.416C67.1959 104.455 65.9419 106.009 64.2405 107.08C62.5392 108.151 60.5005 108.686 58.1245 108.686ZM58.4985 105.892C60.0092 105.892 61.3292 105.621 62.4585 105.078C63.5879 104.535 64.4972 103.795 65.1865 102.856C65.8759 101.903 66.3232 100.832 66.5285 99.6441C66.7045 98.8815 66.7999 98.0455 66.8145 97.1361C66.8292 96.2121 66.8365 95.5228 66.8365 95.0681L68.0685 95.7061C66.9685 95.8528 65.7732 95.9995 64.4825 96.1461C63.2065 96.2928 61.9452 96.4615 60.6985 96.6521C59.4665 96.8428 58.3519 97.0701 57.3545 97.3341C56.6799 97.5248 56.0272 97.7961 55.3965 98.1481C54.7659 98.4855 54.2452 98.9401 53.8345 99.5121C53.4385 100.084 53.2405 100.795 53.2405 101.646C53.2405 102.335 53.4092 103.003 53.7465 103.648C54.0985 104.293 54.6559 104.829 55.4185 105.254C56.1959 105.679 57.2225 105.892 58.4985 105.892ZM75.7757 108.026V84.2661H78.6797V89.9861L78.1077 89.2381C78.3717 88.5341 78.7164 87.8888 79.1417 87.3021C79.5671 86.7008 80.0291 86.2095 80.5277 85.8281C81.1437 85.2855 81.8624 84.8748 82.6837 84.5961C83.5051 84.3028 84.3337 84.1341 85.1697 84.0901C86.0057 84.0315 86.7684 84.0901 87.4577 84.2661V87.3021C86.5924 87.0821 85.6464 87.0308 84.6197 87.1481C83.5931 87.2655 82.6471 87.6761 81.7817 88.3801C80.9897 88.9961 80.3957 89.7368 79.9997 90.6021C79.6037 91.4528 79.3397 92.3621 79.2077 93.3301C79.0757 94.2835 79.0097 95.2295 79.0097 96.1681V108.026H75.7757ZM108.791 108.026V95.9041C108.791 94.5841 108.667 93.3741 108.417 92.2741C108.168 91.1595 107.765 90.1915 107.207 89.3701C106.665 88.5341 105.953 87.8888 105.073 87.4341C104.208 86.9795 103.152 86.7521 101.905 86.7521C100.761 86.7521 99.7492 86.9501 98.8692 87.3461C98.0039 87.7421 97.2705 88.3141 96.6692 89.0621C96.0825 89.7955 95.6352 90.6901 95.3272 91.7461C95.0192 92.8021 94.8652 94.0048 94.8652 95.3541L92.5772 94.8481C92.5772 92.4135 93.0025 90.3675 93.8532 88.7101C94.7039 87.0528 95.8772 85.7988 97.3732 84.9481C98.8692 84.0975 100.585 83.6721 102.521 83.6721C103.944 83.6721 105.183 83.8921 106.239 84.3321C107.31 84.7721 108.212 85.3661 108.945 86.1141C109.693 86.8621 110.295 87.7201 110.749 88.6881C111.204 89.6415 111.534 90.6608 111.739 91.7461C111.945 92.8168 112.047 93.8875 112.047 94.9581V108.026H108.791ZM91.6092 108.026V84.2661H94.5352V90.1181H94.8652V108.026H91.6092ZM134.493 108.004L134.515 105.056L148.837 92.1201C150.069 91.0055 150.883 89.9495 151.279 88.9521C151.69 87.9401 151.895 86.8841 151.895 85.7841C151.895 84.4788 151.587 83.2981 150.971 82.2421C150.355 81.1861 149.527 80.3501 148.485 79.7341C147.444 79.1035 146.278 78.7881 144.987 78.7881C143.638 78.7881 142.435 79.1108 141.379 79.7561C140.323 80.4015 139.487 81.2521 138.871 82.3081C138.27 83.3641 137.977 84.5155 137.991 85.7621H134.691C134.691 83.8408 135.146 82.1175 136.055 80.5921C136.965 79.0668 138.197 77.8715 139.751 77.0061C141.306 76.1261 143.066 75.6861 145.031 75.6861C146.953 75.6861 148.676 76.1408 150.201 77.0501C151.741 77.9448 152.951 79.1621 153.831 80.7021C154.726 82.2275 155.173 83.9288 155.173 85.8061C155.173 87.1261 155.012 88.2921 154.689 89.3041C154.381 90.3015 153.89 91.2328 153.215 92.0981C152.555 92.9488 151.712 93.8288 150.685 94.7381L137.969 106.222L137.463 104.902H155.173V108.004H134.493ZM173.556 108.026V101.888H158.728V98.8081L169.332 76.3461H172.962L162.358 98.8081H173.556V89.5681H176.812V98.8081H180.266V101.888H176.812V108.026H173.556ZM193.569 76.3461H196.891L188.443 108.026H185.121L193.569 76.3461ZM204.313 108.026L215.973 79.4921H201.299V76.3461H219.427V79.4921L207.789 108.026H204.313ZM255.149 108.686C251.995 108.686 249.333 107.989 247.163 106.596C244.992 105.188 243.349 103.245 242.235 100.766C241.12 98.2875 240.563 95.4275 240.563 92.1861C240.563 88.9448 241.12 86.0848 242.235 83.6061C243.349 81.1275 244.992 79.1915 247.163 77.7981C249.333 76.3901 251.995 75.6861 255.149 75.6861C258.317 75.6861 260.979 76.3901 263.135 77.7981C265.305 79.1915 266.948 81.1275 268.063 83.6061C269.192 86.0848 269.757 88.9448 269.757 92.1861C269.757 95.4275 269.192 98.2875 268.063 100.766C266.948 103.245 265.305 105.188 263.135 106.596C260.979 107.989 258.317 108.686 255.149 108.686ZM255.149 105.584C257.627 105.584 259.695 105.019 261.353 103.89C263.01 102.761 264.249 101.191 265.071 99.1821C265.907 97.1581 266.325 94.8261 266.325 92.1861C266.325 89.5461 265.907 87.2215 265.071 85.2121C264.249 83.2028 263.01 81.6335 261.353 80.5041C259.695 79.3748 257.627 78.8028 255.149 78.7881C252.67 78.7881 250.609 79.3528 248.967 80.4821C247.324 81.6115 246.085 83.1881 245.249 85.2121C244.427 87.2215 244.009 89.5461 243.995 92.1861C243.98 94.8261 244.383 97.1508 245.205 99.1601C246.041 101.155 247.287 102.724 248.945 103.868C250.602 104.997 252.67 105.569 255.149 105.584ZM291.322 108.026V95.9041C291.322 94.5841 291.198 93.3741 290.948 92.2741C290.699 91.1595 290.296 90.1915 289.738 89.3701C289.196 88.5341 288.484 87.8888 287.604 87.4341C286.739 86.9795 285.683 86.7521 284.436 86.7521C283.292 86.7521 282.28 86.9501 281.4 87.3461C280.535 87.7421 279.802 88.3141 279.2 89.0621C278.614 89.7955 278.166 90.6901 277.858 91.7461C277.55 92.8021 277.396 94.0048 277.396 95.3541L275.108 94.8481C275.108 92.4135 275.534 90.3675 276.384 88.7101C277.235 87.0528 278.408 85.7988 279.904 84.9481C281.4 84.0975 283.116 83.6721 285.052 83.6721C286.475 83.6721 287.714 83.8921 288.77 84.3321C289.841 84.7721 290.743 85.3661 291.476 86.1141C292.224 86.8621 292.826 87.7201 293.28 88.6881C293.735 89.6415 294.065 90.6608 294.27 91.7461C294.476 92.8168 294.578 93.8875 294.578 94.9581V108.026H291.322ZM274.14 108.026V84.2661H277.066V90.1181H277.396V108.026H274.14ZM300.727 108.026V75.6861H303.961V108.026H300.727ZM310.997 79.7561V76.1261H314.231V79.7561H310.997ZM310.997 108.026V84.2661H314.231V108.026H310.997ZM337.987 108.026V95.9041C337.987 94.5841 337.862 93.3741 337.613 92.2741C337.363 91.1595 336.96 90.1915 336.403 89.3701C335.86 88.5341 335.149 87.8888 334.269 87.4341C333.403 86.9795 332.347 86.7521 331.101 86.7521C329.957 86.7521 328.945 86.9501 328.065 87.3461C327.199 87.7421 326.466 88.3141 325.865 89.0621C325.278 89.7955 324.831 90.6901 324.523 91.7461C324.215 92.8021 324.061 94.0048 324.061 95.3541L321.773 94.8481C321.773 92.4135 322.198 90.3675 323.049 88.7101C323.899 87.0528 325.073 85.7988 326.569 84.9481C328.065 84.0975 329.781 83.6721 331.717 83.6721C333.139 83.6721 334.379 83.8921 335.435 84.3321C336.505 84.7721 337.407 85.3661 338.141 86.1141C338.889 86.8621 339.49 87.7201 339.945 88.6881C340.399 89.6415 340.729 90.6608 340.935 91.7461C341.14 92.8168 341.243 93.8875 341.243 94.9581V108.026H337.987ZM320.805 108.026V84.2661H323.731V90.1181H324.061V108.026H320.805ZM356.877 108.686C354.559 108.686 352.55 108.173 350.849 107.146C349.162 106.119 347.849 104.675 346.911 102.812C345.972 100.949 345.503 98.7641 345.503 96.2561C345.503 93.6601 345.965 91.4161 346.889 89.5241C347.813 87.6321 349.111 86.1728 350.783 85.1461C352.469 84.1195 354.457 83.6061 356.745 83.6061C359.091 83.6061 361.093 84.1488 362.751 85.2341C364.408 86.3048 365.662 87.8448 366.513 89.8541C367.363 91.8635 367.752 94.2615 367.679 97.0481H364.379V95.9041C364.32 92.8241 363.653 90.4995 362.377 88.9301C361.115 87.3608 359.267 86.5761 356.833 86.5761C354.281 86.5761 352.323 87.4048 350.959 89.0621C349.609 90.7195 348.935 93.0808 348.935 96.1461C348.935 99.1381 349.609 101.463 350.959 103.12C352.323 104.763 354.251 105.584 356.745 105.584C358.446 105.584 359.927 105.195 361.189 104.418C362.465 103.626 363.469 102.489 364.203 101.008L367.217 102.174C366.278 104.242 364.892 105.848 363.059 106.992C361.24 108.121 359.179 108.686 356.877 108.686ZM347.791 97.0481V94.3421H365.941V97.0481H347.791ZM374.761 108.026V104.396H377.995V108.026H374.761ZM374.761 100.106V76.3461H377.995V100.106H374.761Z" fill="#000000"/>
<path d="M3.98527 108.026H2.98527V109.026H3.98527V108.026ZM3.98527 76.3461V75.3461H2.98527V76.3461H3.98527ZM7.21927 76.3461H8.21927V75.3461H7.21927V76.3461ZM7.21927 104.924H6.21927V105.924H7.21927V104.924ZM22.2673 104.924H23.2673V103.924H22.2673V104.924ZM22.2673 108.026V109.026H23.2673V108.026H22.2673ZM4.98527 108.026V76.3461H2.98527V108.026H4.98527ZM3.98527 77.3461H7.21927V75.3461H3.98527V77.3461ZM6.21927 76.3461V104.924H8.21927V76.3461H6.21927ZM7.21927 105.924H22.2673V103.924H7.21927V105.924ZM21.2673 104.924V108.026H23.2673V104.924H21.2673ZM22.2673 107.026H3.98527V109.026H22.2673V107.026ZM30.0439 107.146L29.524 108L29.5273 108.002L30.0439 107.146ZM26.1059 102.812L26.9989 102.362L26.9989 102.362L26.1059 102.812ZM26.0839 89.5241L25.1854 89.0853L25.1854 89.0853L26.0839 89.5241ZM29.9779 85.1461L29.458 84.2919L29.4547 84.294L29.9779 85.1461ZM41.9459 85.2341L41.3981 86.0707L41.4033 86.0741L41.9459 85.2341ZM45.7079 89.8541L46.6288 89.4643L46.6288 89.4643L45.7079 89.8541ZM46.8739 97.0481V98.0481H47.848L47.8736 97.0745L46.8739 97.0481ZM43.5739 97.0481H42.5739V98.0481H43.5739V97.0481ZM43.5739 95.9041H44.5739V95.8946L44.5737 95.8851L43.5739 95.9041ZM41.5719 88.9301L40.7925 89.5566L40.796 89.561L41.5719 88.9301ZM30.1539 89.0621L29.3818 88.4267L29.3784 88.4308L30.1539 89.0621ZM30.1539 103.12L29.3784 103.752L29.3846 103.759L30.1539 103.12ZM40.3839 104.418L40.9086 105.269L40.9113 105.268L40.3839 104.418ZM43.3979 101.008L43.7587 100.076L42.9069 99.746L42.5017 100.564L43.3979 101.008ZM46.4119 102.174L47.3225 102.587L47.7601 101.623L46.7727 101.242L46.4119 102.174ZM42.2539 106.992L42.7815 107.842L42.7833 107.841L42.2539 106.992ZM26.9859 97.0481H25.9859V98.0481H26.9859V97.0481ZM26.9859 94.3421V93.3421H25.9859V94.3421H26.9859ZM45.1359 94.3421H46.1359V93.3421H45.1359V94.3421ZM45.1359 97.0481V98.0481H46.1359V97.0481H45.1359ZM36.0719 107.686C33.906 107.686 32.0817 107.208 30.5606 106.29L29.5273 108.002C31.4088 109.138 33.6032 109.686 36.0719 109.686V107.686ZM30.5639 106.292C29.0461 105.368 27.8584 104.068 26.9989 102.362L25.2129 103.262C26.2308 105.282 27.6685 106.871 29.524 108L30.5639 106.292ZM26.9989 102.362C26.1435 100.665 25.6979 98.6392 25.6979 96.2561H23.6979C23.6979 98.8891 24.191 101.234 25.2129 103.262L26.9989 102.362ZM25.6979 96.2561C25.6979 93.7775 26.139 91.6902 26.9825 89.963L25.1854 89.0853C24.1809 91.1421 23.6979 93.5428 23.6979 96.2561H25.6979ZM26.9825 89.963C27.8295 88.2286 29.0029 86.9183 30.5012 85.9983L29.4547 84.294C27.6089 85.4273 26.1863 87.0357 25.1854 89.0853L26.9825 89.963ZM30.4979 86.0003C32.0044 85.0833 33.8057 84.6061 35.9399 84.6061V82.6061C33.4981 82.6061 31.3248 83.1556 29.458 84.2919L30.4979 86.0003ZM35.9399 84.6061C38.1285 84.6061 39.9317 85.1104 41.3981 86.0707L42.4938 84.3976C40.6455 83.1872 38.4447 82.6061 35.9399 82.6061V84.6061ZM41.4033 86.0741C42.8746 87.0246 44.0059 88.3989 44.7871 90.244L46.6288 89.4643C45.7086 87.2908 44.3319 85.585 42.4886 84.3942L41.4033 86.0741ZM44.7871 90.244C45.5689 92.0907 45.9449 94.3397 45.8743 97.0218L47.8736 97.0745C47.9497 94.1832 47.5483 91.6363 46.6288 89.4643L44.7871 90.244ZM46.8739 96.0481H43.5739V98.0481H46.8739V96.0481ZM44.5739 97.0481V95.9041H42.5739V97.0481H44.5739ZM44.5737 95.8851C44.5129 92.6927 43.8215 90.1117 42.3478 88.2993L40.796 89.561C41.8744 90.8872 42.5176 92.9556 42.5741 95.9232L44.5737 95.8851ZM42.3514 88.3037C40.8602 86.4484 38.6954 85.5761 36.0279 85.5761V87.5761C38.2298 87.5761 39.761 88.2732 40.7925 89.5566L42.3514 88.3037ZM36.0279 85.5761C33.2396 85.5761 30.9723 86.4942 29.3818 88.4267L30.9261 89.6976C32.0636 88.3154 33.7122 87.5761 36.0279 87.5761V85.5761ZM29.3784 88.4308C27.8324 90.3298 27.1299 92.9484 27.1299 96.1461H29.1299C29.1299 93.2132 29.7768 91.1092 30.9294 89.6935L29.3784 88.4308ZM27.1299 96.1461C27.1299 99.2775 27.8354 101.856 29.3784 103.752L30.9294 102.489C29.7738 101.069 29.1299 98.9988 29.1299 96.1461H27.1299ZM29.3846 103.759C30.9714 105.67 33.2047 106.584 35.9399 106.584V104.584C33.6884 104.584 32.0644 103.856 30.9233 102.481L29.3846 103.759ZM35.9399 106.584C37.7985 106.584 39.4672 106.158 40.9086 105.269L39.8593 103.567C38.778 104.233 37.484 104.584 35.9399 104.584V106.584ZM40.9113 105.268C42.3614 104.368 43.4867 103.083 44.2941 101.452L42.5017 100.564C41.8425 101.896 40.9585 102.885 39.8566 103.569L40.9113 105.268ZM43.0371 101.941L46.0511 103.107L46.7727 101.242L43.7587 100.076L43.0371 101.941ZM45.5013 101.761C44.6397 103.659 43.382 105.11 41.7245 106.144L42.7833 107.841C44.7926 106.587 46.3068 104.825 47.3225 102.587L45.5013 101.761ZM41.7264 106.143C40.0781 107.166 38.2028 107.686 36.0719 107.686V109.686C38.5464 109.686 40.7924 109.077 42.7815 107.842L41.7264 106.143ZM27.9859 97.0481V94.3421H25.9859V97.0481H27.9859ZM26.9859 95.3421H45.1359V93.3421H26.9859V95.3421ZM44.1359 94.3421V97.0481H46.1359V94.3421H44.1359ZM45.1359 96.0481H26.9859V98.0481H45.1359V96.0481ZM53.6145 107.718L53.1417 108.599L53.1461 108.602L53.6145 107.718ZM50.9085 105.144L51.7804 104.654L51.7804 104.654L50.9085 105.144ZM50.7765 98.3461L49.9083 97.85L49.9057 97.8546L50.7765 98.3461ZM52.9105 96.0801L52.3684 95.2398L52.3622 95.2439L52.9105 96.0801ZM56.0565 94.7381L55.8196 93.7666L55.8125 93.7683L55.8056 93.7702L56.0565 94.7381ZM60.0385 93.9681L60.1883 94.9569L60.1965 94.9556L60.0385 93.9681ZM64.3285 93.3741L64.4435 94.3676L64.4526 94.3664L64.3285 93.3741ZM68.0245 92.8681L68.5486 93.7198L67.8735 91.8796L68.0245 92.8681ZM66.8805 93.5721L65.8807 93.5534L65.8464 95.3827L67.4046 94.4238L66.8805 93.5721ZM56.4085 87.7641L55.8639 86.9254L55.8589 86.9287L56.4085 87.7641ZM54.0545 91.2401L53.7727 92.1996L54.7381 92.4832L55.0157 91.516L54.0545 91.2401ZM50.9085 90.3161L49.9396 90.0689L49.701 91.0037L50.6267 91.2756L50.9085 90.3161ZM54.1865 85.3661L53.6053 84.5524L53.6053 84.5524L54.1865 85.3661ZM66.1105 84.8381L65.6328 85.7168L65.643 85.7221L66.1105 84.8381ZM69.3445 88.3581L68.419 88.7372L68.4244 88.7497L69.3445 88.3581ZM69.9165 90.6681L70.9112 90.5653L70.9112 90.5652L69.9165 90.6681ZM70.0485 108.026V109.026H71.0485V108.026H70.0485ZM67.1665 108.026H66.1665V109.026H67.1665V108.026ZM67.1665 102.064L67.5546 101.143L66.1665 100.558V102.064H67.1665ZM68.0025 102.416L68.9324 102.784L69.2924 101.874L68.3906 101.495L68.0025 102.416ZM64.2405 107.08L64.7731 107.927L64.7731 107.927L64.2405 107.08ZM65.1865 102.856L65.9925 103.448L65.9969 103.442L65.1865 102.856ZM66.5285 99.6441L65.5541 99.4193L65.5479 99.4464L65.5431 99.4738L66.5285 99.6441ZM66.8145 97.1361L67.8144 97.1523L67.8144 97.152L66.8145 97.1361ZM66.8365 95.0681L67.2964 94.1802L65.8365 93.4242V95.0681H66.8365ZM68.0685 95.7061L68.2007 96.6974L71.3471 96.2779L68.5284 94.8182L68.0685 95.7061ZM64.4825 96.1461L64.3696 95.1525L64.3683 95.1527L64.4825 96.1461ZM60.6985 96.6521L60.5473 95.6636L60.5456 95.6639L60.6985 96.6521ZM57.3545 97.3341L57.0986 96.3674L57.0906 96.3696L57.0826 96.3718L57.3545 97.3341ZM55.3965 98.1481L55.8682 99.0299L55.8761 99.0257L55.8839 99.0213L55.3965 98.1481ZM53.8345 99.5121L53.0222 98.9289L53.0172 98.9359L53.0123 98.9429L53.8345 99.5121ZM53.7465 103.648L52.8603 104.111L52.8644 104.119L52.8686 104.127L53.7465 103.648ZM55.4185 105.254L54.9314 106.128L54.9385 106.131L55.4185 105.254ZM58.1245 107.686C56.4512 107.686 55.1193 107.384 54.0829 106.835L53.1461 108.602C54.5444 109.343 56.2191 109.686 58.1245 109.686V107.686ZM54.0873 106.837C53.0329 106.271 52.2785 105.541 51.7804 104.654L50.0366 105.634C50.7412 106.888 51.7908 107.874 53.1417 108.599L54.0873 106.837ZM51.7804 104.654C51.2654 103.738 51.0065 102.741 51.0065 101.646H49.0065C49.0065 103.074 49.349 104.409 50.0366 105.634L51.7804 104.654ZM51.0065 101.646C51.0065 100.488 51.2365 99.5655 51.6473 98.8377L49.9057 97.8546C49.2899 98.9454 49.0065 100.223 49.0065 101.646H51.0065ZM51.6448 98.8423C52.094 98.0561 52.6955 97.417 53.4589 96.9164L52.3622 95.2439C51.3363 95.9166 50.515 96.7882 49.9083 97.85L51.6448 98.8423ZM53.4526 96.9204C54.2612 96.3988 55.2091 95.9909 56.3075 95.7061L55.8056 93.7702C54.528 94.1014 53.3785 94.5882 52.3684 95.2399L53.4526 96.9204ZM56.2935 95.7097C57.4627 95.4245 58.7604 95.1732 60.1883 94.9569L59.8887 92.9794C58.4126 93.2031 57.0557 93.4651 55.8196 93.7666L56.2935 95.7097ZM60.1965 94.9556C61.6497 94.7231 63.0654 94.5271 64.4435 94.3675L64.2135 92.3808C62.805 92.5439 61.3606 92.7439 59.8805 92.9807L60.1965 94.9556ZM64.4526 94.3664C65.8668 94.1896 67.1082 94.0197 68.1755 93.8567L67.8735 91.8796C66.8288 92.0392 65.6062 92.2067 64.2045 92.3819L64.4526 94.3664ZM67.5004 92.0165L66.3564 92.7205L67.4046 94.4238L68.5486 93.7198L67.5004 92.0165ZM67.8803 93.5909C67.9264 91.1368 67.4599 89.11 66.2807 87.7131L64.7524 89.0032C65.4798 89.8649 65.9227 91.3141 65.8807 93.5534L67.8803 93.5909ZM66.2807 87.7131C65.0481 86.253 63.0262 85.6641 60.5445 85.6641V87.6641C62.7855 87.6641 64.0783 88.2046 64.7524 89.0032L66.2807 87.7131ZM60.5445 85.6641C58.764 85.6641 57.1865 86.0666 55.8639 86.9255L56.9531 88.6028C57.8892 87.995 59.069 87.6641 60.5445 87.6641V85.6641ZM55.8589 86.9287C54.5008 87.8222 53.5979 89.2066 53.0933 90.9643L55.0157 91.516C55.4205 90.1057 56.0869 89.1727 56.9581 88.5996L55.8589 86.9287ZM54.3363 90.2807L51.1903 89.3567L50.6267 91.2756L53.7727 92.1996L54.3363 90.2807ZM51.8775 90.5634C52.3673 88.6439 53.3344 87.2037 54.7678 86.1799L53.6053 84.5524C51.7533 85.8753 50.5351 87.735 49.9396 90.0689L51.8775 90.5634ZM54.7678 86.1799C56.1963 85.1595 58.1092 84.6061 60.5885 84.6061V82.6061C57.8172 82.6061 55.4621 83.2261 53.6053 84.5524L54.7678 86.1799ZM60.5885 84.6061C62.6352 84.6061 64.3024 84.9933 65.6329 85.7167L66.5882 83.9596C64.8974 83.0403 62.8831 82.6061 60.5885 82.6061V84.6061ZM65.643 85.7221C66.9696 86.4237 67.8807 87.4224 68.4191 88.7371L70.2699 87.9792C69.547 86.2139 68.3021 84.8659 66.578 83.9542L65.643 85.7221ZM68.4244 88.7497C68.6735 89.3351 68.8427 90.006 68.9218 90.771L70.9112 90.5652C70.8144 89.629 70.6022 88.7598 70.2647 87.9666L68.4244 88.7497ZM68.9218 90.771C69.0062 91.5866 69.0485 92.4175 69.0485 93.2641H71.0485C71.0485 92.3508 71.0029 91.4511 70.9112 90.5653L68.9218 90.771ZM69.0485 93.2641V108.026H71.0485V93.2641H69.0485ZM70.0485 107.026H67.1665V109.026H70.0485V107.026ZM68.1665 108.026V102.064H66.1665V108.026H68.1665ZM66.7785 102.986L67.6145 103.338L68.3906 101.495L67.5546 101.143L66.7785 102.986ZM67.0727 102.048C66.3367 103.908 65.2129 105.287 63.7079 106.234L64.7731 107.927C66.6708 106.732 68.055 105.001 68.9324 102.784L67.0727 102.048ZM63.7079 106.234C62.1932 107.187 60.3468 107.686 58.1245 107.686V109.686C60.6542 109.686 62.8852 109.115 64.7731 107.927L63.7079 106.234ZM58.4985 106.892C60.1287 106.892 61.6022 106.599 62.8916 105.979L62.0254 104.177C61.0562 104.643 59.8896 104.892 58.4985 104.892V106.892ZM62.8916 105.979C64.1572 105.371 65.1989 104.529 65.9925 103.448L64.3805 102.264C63.7955 103.061 63.0185 103.7 62.0254 104.177L62.8916 105.979ZM65.9969 103.442C66.7777 102.362 67.2833 101.149 67.5139 99.8145L65.5431 99.4738C65.3631 100.516 64.974 101.443 64.3762 102.27L65.9969 103.442ZM67.5029 99.869C67.697 99.0279 67.7988 98.1209 67.8144 97.1523L65.8147 97.12C65.8009 97.9701 65.712 98.7351 65.5541 99.4193L67.5029 99.869ZM67.8144 97.152C67.8291 96.2269 67.8365 95.5311 67.8365 95.0681H65.8365C65.8365 95.5145 65.8293 96.1974 65.8146 97.1203L67.8144 97.152ZM66.3767 95.9561L67.6087 96.5941L68.5284 94.8182L67.2964 94.1802L66.3767 95.9561ZM67.9364 94.7149C66.8437 94.8606 65.6549 95.0065 64.3696 95.1525L64.5954 97.1398C65.8915 96.9925 67.0933 96.845 68.2007 96.6974L67.9364 94.7149ZM64.3683 95.1527C63.0802 95.3008 61.8065 95.4711 60.5473 95.6636L60.8497 97.6407C62.0838 97.4519 63.3328 97.2849 64.5967 97.1396L64.3683 95.1527ZM60.5456 95.6639C59.2858 95.8589 58.136 96.0928 57.0986 96.3674L57.6104 98.3009C58.5677 98.0474 59.6473 97.8267 60.8515 97.6404L60.5456 95.6639ZM57.0826 96.3718C56.3306 96.5843 55.6058 96.8861 54.9092 97.275L55.8839 99.0213C56.4485 98.7062 57.0291 98.4653 57.6265 98.2965L57.0826 96.3718ZM54.9249 97.2664C54.1615 97.6747 53.5235 98.2307 53.0222 98.9289L54.6468 100.095C54.9668 99.6496 55.3702 99.2963 55.8682 99.0299L54.9249 97.2664ZM53.0123 98.9429C52.4769 99.7163 52.2405 100.638 52.2405 101.646H54.2405C54.2405 100.953 54.4001 100.452 54.6567 100.081L53.0123 98.9429ZM52.2405 101.646C52.2405 102.506 52.4526 103.331 52.8603 104.111L54.6327 103.185C54.3658 102.674 54.2405 102.165 54.2405 101.646H52.2405ZM52.8686 104.127C53.3268 104.967 54.0353 105.628 54.9315 106.128L55.9056 104.381C55.2765 104.03 54.8702 103.62 54.6244 103.169L52.8686 104.127ZM54.9385 106.131C55.9136 106.665 57.1239 106.892 58.4985 106.892V104.892C57.3212 104.892 56.4781 104.694 55.8985 104.377L54.9385 106.131ZM75.7757 108.026H74.7757V109.026H75.7757V108.026ZM75.7757 84.2661V83.2661H74.7757V84.2661H75.7757ZM78.6797 84.2661H79.6797V83.2661H78.6797V84.2661ZM78.6797 89.9861L77.8854 90.5936L79.6797 92.9401V89.9861H78.6797ZM78.1077 89.2381L77.1714 88.887L76.9769 89.4056L77.3134 89.8456L78.1077 89.2381ZM79.1417 87.3021L79.9514 87.8892L79.9582 87.8796L79.1417 87.3021ZM80.5277 85.8281L81.1352 86.6225L81.1627 86.6014L81.1888 86.5785L80.5277 85.8281ZM82.6837 84.5961L83.005 85.5431L83.0126 85.5406L83.0201 85.5379L82.6837 84.5961ZM85.1697 84.0901L85.2223 85.0888L85.231 85.0883L85.2397 85.0877L85.1697 84.0901ZM87.4577 84.2661H88.4577V83.4894L87.7051 83.2972L87.4577 84.2661ZM87.4577 87.3021L87.2113 88.2713L88.4577 88.5882V87.3021H87.4577ZM84.6197 87.1481L84.5062 86.1546L84.5062 86.1546L84.6197 87.1481ZM81.7817 88.3801L82.3957 89.1695L82.4043 89.1628L82.4128 89.1559L81.7817 88.3801ZM79.9997 90.6021L80.9063 91.0242L80.909 91.0183L79.9997 90.6021ZM79.2077 93.3301L80.1983 93.4673L80.1986 93.4653L79.2077 93.3301ZM79.0097 108.026V109.026H80.0097V108.026H79.0097ZM76.7757 108.026V84.2661H74.7757V108.026H76.7757ZM75.7757 85.2661H78.6797V83.2661H75.7757V85.2661ZM77.6797 84.2661V89.9861H79.6797V84.2661H77.6797ZM79.4741 89.3787L78.9021 88.6307L77.3134 89.8456L77.8854 90.5936L79.4741 89.3787ZM79.0441 89.5893C79.2778 88.966 79.5806 88.4005 79.9514 87.8891L78.3321 86.7152C77.8522 87.3771 77.4657 88.1023 77.1714 88.887L79.0441 89.5893ZM79.9582 87.8796C80.335 87.3468 80.7292 86.933 81.1352 86.6225L79.9203 85.0338C79.3289 85.486 78.7991 86.0548 78.3253 86.7247L79.9582 87.8796ZM81.1888 86.5785C81.7001 86.1281 82.3016 85.7818 83.005 85.5431L82.3624 83.6492C81.4232 83.9679 80.5874 84.4429 79.8667 85.0778L81.1888 86.5785ZM83.0201 85.5379C83.7539 85.2758 84.4871 85.1275 85.2223 85.0888L85.1172 83.0915C84.1803 83.1408 83.2562 83.3298 82.3474 83.6544L83.0201 85.5379ZM85.2397 85.0877C85.9876 85.0352 86.6412 85.0897 87.2104 85.2351L87.7051 83.2972C86.8957 83.0906 86.0239 83.0277 85.0997 83.0926L85.2397 85.0877ZM86.4577 84.2661V87.3021H88.4577V84.2661H86.4577ZM87.7041 86.333C86.7044 86.0788 85.6347 86.0256 84.5062 86.1546L84.7333 88.1417C85.6582 88.036 86.4805 88.0855 87.2113 88.2713L87.7041 86.333ZM84.5062 86.1546C83.2746 86.2954 82.1519 86.7899 81.1507 87.6044L82.4128 89.1559C83.1423 88.5624 83.9115 88.2356 84.7333 88.1417L84.5062 86.1546ZM81.1678 87.5908C80.2559 88.3001 79.5571 89.1663 79.0904 90.186L80.909 91.0183C81.2344 90.3073 81.7236 89.6922 82.3957 89.1695L81.1678 87.5908ZM79.0932 90.1801C78.6531 91.1254 78.3619 92.1318 78.2169 93.195L80.1986 93.4653C80.3176 92.5925 80.5543 91.7803 80.9063 91.0242L79.0932 90.1801ZM78.2172 93.193C78.0791 94.1906 78.0097 95.1825 78.0097 96.1681H80.0097C80.0097 95.2765 80.0724 94.3763 80.1983 93.4673L78.2172 93.193ZM78.0097 96.1681V108.026H80.0097V96.1681H78.0097ZM79.0097 107.026H75.7757V109.026H79.0097V107.026ZM108.791 108.026H107.791V109.026H108.791V108.026ZM108.417 92.2741L107.441 92.4924L107.442 92.4952L108.417 92.2741ZM107.207 89.3701L106.368 89.9146L106.374 89.9232L106.38 89.9316L107.207 89.3701ZM105.073 87.4341L104.608 88.3194L104.614 88.3226L105.073 87.4341ZM98.8692 87.3461L98.4588 86.4342L98.4531 86.4368L98.8692 87.3461ZM96.6692 89.0621L95.8898 88.4356L95.8883 88.4375L96.6692 89.0621ZM95.3272 91.7461L96.2872 92.0261L96.2872 92.0261L95.3272 91.7461ZM94.8652 95.3541L94.6493 96.3306L95.8652 96.5995V95.3541H94.8652ZM92.5772 94.8481H91.5772V95.6512L92.3613 95.8246L92.5772 94.8481ZM93.8532 88.7101L94.7429 89.1668L94.7429 89.1668L93.8532 88.7101ZM106.239 84.3321L105.855 85.2552L105.859 85.2571L106.239 84.3321ZM108.945 86.1141L108.231 86.8143L108.238 86.8213L108.945 86.1141ZM110.749 88.6881L109.844 89.1133L109.847 89.1186L110.749 88.6881ZM111.739 91.7461L110.757 91.932L110.757 91.9345L111.739 91.7461ZM112.047 108.026V109.026H113.047V108.026H112.047ZM91.6092 108.026H90.6092V109.026H91.6092V108.026ZM91.6092 84.2661V83.2661H90.6092V84.2661H91.6092ZM94.5352 84.2661H95.5352V83.2661H94.5352V84.2661ZM94.5352 90.1181H93.5352V91.1181H94.5352V90.1181ZM94.8652 90.1181H95.8652V89.1181H94.8652V90.1181ZM94.8652 108.026V109.026H95.8652V108.026H94.8652ZM109.791 108.026V95.9041H107.791V108.026H109.791ZM109.791 95.9041C109.791 94.522 109.661 93.2367 109.392 92.0531L107.442 92.4952C107.672 93.5116 107.791 94.6463 107.791 95.9041H109.791ZM109.393 92.0559C109.12 90.8368 108.672 89.7485 108.035 88.8086L106.38 89.9316C106.857 90.6345 107.215 91.4822 107.441 92.4924L109.393 92.0559ZM108.046 88.8257C107.409 87.8449 106.568 87.0806 105.532 86.5457L104.614 88.3226C105.339 88.697 105.92 89.2234 106.368 89.9146L108.046 88.8257ZM105.538 86.5489C104.495 86.001 103.27 85.7521 101.905 85.7521V87.7521C103.033 87.7521 103.92 87.958 104.608 88.3194L105.538 86.5489ZM101.905 85.7521C100.646 85.7521 99.4896 85.9704 98.4588 86.4342L99.2796 88.2581C100.009 87.9299 100.877 87.7521 101.905 87.7521V85.7521ZM98.4531 86.4368C97.4451 86.8981 96.5878 87.5674 95.8898 88.4356L97.4486 89.6887C97.9533 89.0608 98.5627 88.5862 99.2853 88.2555L98.4531 86.4368ZM95.8883 88.4375C95.2073 89.2888 94.7056 90.3058 94.3672 91.4661L96.2872 92.0261C96.5648 91.0745 96.9578 90.3022 97.4501 89.6868L95.8883 88.4375ZM94.3672 91.4661C94.0275 92.631 93.8652 93.9306 93.8652 95.3541H95.8652C95.8652 94.079 96.0109 92.9733 96.2872 92.0261L94.3672 91.4661ZM95.0811 94.3777L92.7931 93.8717L92.3613 95.8246L94.6493 96.3306L95.0811 94.3777ZM93.5772 94.8481C93.5772 92.5253 93.9835 90.6462 94.7429 89.1668L92.9636 88.2535C92.0216 90.0887 91.5772 92.3017 91.5772 94.8481H93.5772ZM94.7429 89.1668C95.5123 87.6676 96.5546 86.564 97.8675 85.8174L96.8789 84.0789C95.1998 85.0337 93.8954 86.438 92.9636 88.2535L94.7429 89.1668ZM97.8675 85.8174C99.1948 85.0627 100.736 84.6721 102.521 84.6721V82.6721C100.434 82.6721 98.5437 83.1322 96.8789 84.0789L97.8675 85.8174ZM102.521 84.6721C103.843 84.6721 104.946 84.8767 105.855 85.2552L106.624 83.4091C105.42 82.9076 104.045 82.6721 102.521 82.6721V84.6721ZM105.859 85.2571C106.818 85.651 107.602 86.1728 108.231 86.8142L109.659 85.4141C108.821 84.5595 107.802 83.8933 106.619 83.4072L105.859 85.2571ZM108.238 86.8213C108.903 87.4865 109.438 88.2489 109.844 89.1133L111.654 88.263C111.151 87.1914 110.483 86.2378 109.652 85.407L108.238 86.8213ZM109.847 89.1186C110.263 89.9907 110.567 90.9275 110.757 91.932L112.722 91.5603C112.501 90.3942 112.145 89.2922 111.652 88.2577L109.847 89.1186ZM110.757 91.9345C110.951 92.9442 111.047 93.9518 111.047 94.9581H113.047C113.047 93.8231 112.938 92.6894 112.721 91.5578L110.757 91.9345ZM111.047 94.9581V108.026H113.047V94.9581H111.047ZM112.047 107.026H108.791V109.026H112.047V107.026ZM92.6092 108.026V84.2661H90.6092V108.026H92.6092ZM91.6092 85.2661H94.5352V83.2661H91.6092V85.2661ZM93.5352 84.2661V90.1181H95.5352V84.2661H93.5352ZM94.5352 91.1181H94.8652V89.1181H94.5352V91.1181ZM93.8652 90.1181V108.026H95.8652V90.1181H93.8652ZM94.8652 107.026H91.6092V109.026H94.8652V107.026ZM134.493 108.004L133.493 107.997L133.486 109.004H134.493V108.004ZM134.515 105.056L133.845 104.314L133.519 104.609L133.515 105.049L134.515 105.056ZM148.837 92.1201L149.508 92.8623L149.508 92.8617L148.837 92.1201ZM151.279 88.9521L150.353 88.5761L150.35 88.5831L151.279 88.9521ZM148.485 79.7341L147.967 80.5896L147.976 80.5948L148.485 79.7341ZM138.871 82.3081L138.008 81.8043L138.002 81.8133L138.871 82.3081ZM137.991 85.7621V86.7621H139.003L138.991 85.7504L137.991 85.7621ZM134.691 85.7621H133.691V86.7621H134.691V85.7621ZM136.055 80.5921L135.196 80.0801L135.196 80.0801L136.055 80.5921ZM139.751 77.0061L140.238 77.8799L140.244 77.8764L139.751 77.0061ZM150.201 77.0501L149.689 77.9091L149.699 77.9148L150.201 77.0501ZM153.831 80.7021L152.963 81.1983L152.969 81.2081L153.831 80.7021ZM154.689 89.3041L153.737 89.0004L153.734 89.0091L154.689 89.3041ZM153.215 92.0981L152.427 91.4833L152.425 91.4852L153.215 92.0981ZM150.685 94.7381L150.022 93.9895L150.015 93.996L150.685 94.7381ZM137.969 106.222L137.036 106.58L137.558 107.942L138.64 106.964L137.969 106.222ZM137.463 104.902V103.902H136.009L136.53 105.26L137.463 104.902ZM155.173 104.902H156.173V103.902H155.173V104.902ZM155.173 108.004V109.004H156.173V108.004H155.173ZM135.493 108.012L135.515 105.064L133.515 105.049L133.493 107.997L135.493 108.012ZM135.186 105.798L149.508 92.8623L148.167 91.378L133.845 104.314L135.186 105.798ZM149.508 92.8617C150.798 91.6952 151.734 90.5176 152.209 89.3212L150.35 88.5831C150.033 89.3813 149.341 90.3158 148.166 91.3786L149.508 92.8617ZM152.206 89.3282C152.666 88.1958 152.895 87.0121 152.895 85.7841H150.895C150.895 86.7562 150.715 87.6844 150.353 88.5761L152.206 89.3282ZM152.895 85.7841C152.895 84.3142 152.546 82.9576 151.835 81.7383L150.108 82.746C150.628 83.6387 150.895 84.6434 150.895 85.7841H152.895ZM151.835 81.7383C151.134 80.5367 150.184 79.5772 148.995 78.8735L147.976 80.5948C148.869 81.1231 149.577 81.8356 150.108 82.746L151.835 81.7383ZM149.003 78.8788C147.796 78.1477 146.449 77.7881 144.987 77.7881V79.7881C146.107 79.7881 147.092 80.0592 147.967 80.5895L149.003 78.8788ZM144.987 77.7881C143.471 77.7881 142.085 78.153 140.858 78.9029L141.901 80.6094C142.786 80.0686 143.805 79.7881 144.987 79.7881V77.7881ZM140.858 78.9029C139.662 79.6334 138.708 80.6034 138.008 81.8043L139.735 82.812C140.267 81.9009 140.984 81.1695 141.901 80.6094L140.858 78.9029ZM138.002 81.8133C137.311 83.0277 136.975 84.3546 136.991 85.7739L138.991 85.7504C138.979 84.6764 139.229 83.7006 139.74 82.803L138.002 81.8133ZM137.991 84.7621H134.691V86.7621H137.991V84.7621ZM135.691 85.7621C135.691 84.0058 136.105 82.4621 136.914 81.1042L135.196 80.0801C134.187 81.7729 133.691 83.6758 133.691 85.7621H135.691ZM136.914 81.1042C137.733 79.7305 138.837 78.6598 140.238 77.8799L139.265 76.1324C137.557 77.0832 136.196 78.4032 135.196 80.0801L136.914 81.1042ZM140.244 77.8764C141.634 77.0898 143.221 76.6861 145.031 76.6861V74.6861C142.911 74.6861 140.978 75.1625 139.259 76.1359L140.244 77.8764ZM145.031 76.6861C146.788 76.6861 148.331 77.0996 149.689 77.9091L150.713 76.1912C149.021 75.182 147.118 74.6861 145.031 74.6861V76.6861ZM149.699 77.9148C151.087 78.7214 152.171 79.8119 152.963 81.1983L154.7 80.206C153.732 78.5124 152.395 77.1682 150.704 76.1855L149.699 77.9148ZM152.969 81.2081C153.768 82.5705 154.173 84.0953 154.173 85.8061H156.173C156.173 83.7623 155.684 81.8845 154.694 80.1962L152.969 81.2081ZM154.173 85.8061C154.173 87.047 154.021 88.1071 153.737 89.0004L155.642 89.6079C156.003 88.4772 156.173 87.2053 156.173 85.8061H154.173ZM153.734 89.0091C153.464 89.8847 153.031 90.7086 152.427 91.4833L154.004 92.713C154.749 91.757 155.299 90.7182 155.645 89.5992L153.734 89.0091ZM152.425 91.4852C151.812 92.2756 151.015 93.1108 150.022 93.9896L151.348 95.4867C152.41 94.5468 153.299 93.622 154.005 92.7111L152.425 91.4852ZM150.015 93.996L137.299 105.48L138.64 106.964L151.356 95.4803L150.015 93.996ZM138.903 105.864L138.397 104.544L136.53 105.26L137.036 106.58L138.903 105.864ZM137.463 105.902H155.173V103.902H137.463V105.902ZM154.173 104.902V108.004H156.173V104.902H154.173ZM155.173 107.004H134.493V109.004H155.173V107.004ZM173.556 108.026H172.556V109.026H173.556V108.026ZM173.556 101.888H174.556V100.888H173.556V101.888ZM158.728 101.888H157.728V102.888H158.728V101.888ZM158.728 98.8081L157.823 98.3812L157.728 98.584V98.8081H158.728ZM169.332 76.3461V75.3461H168.698L168.427 75.9192L169.332 76.3461ZM172.962 76.3461L173.866 76.7731L174.54 75.3461H172.962V76.3461ZM162.358 98.8081L161.453 98.3812L160.78 99.8081H162.358V98.8081ZM173.556 98.8081V99.8081H174.556V98.8081H173.556ZM173.556 89.5681V88.5681H172.556V89.5681H173.556ZM176.812 89.5681H177.812V88.5681H176.812V89.5681ZM176.812 98.8081H175.812V99.8081H176.812V98.8081ZM180.266 98.8081H181.266V97.8081H180.266V98.8081ZM180.266 101.888V102.888H181.266V101.888H180.266ZM176.812 101.888V100.888H175.812V101.888H176.812ZM176.812 108.026V109.026H177.812V108.026H176.812ZM174.556 108.026V101.888H172.556V108.026H174.556ZM173.556 100.888H158.728V102.888H173.556V100.888ZM159.728 101.888V98.8081H157.728V101.888H159.728ZM159.632 99.2351L170.236 76.7731L168.427 75.9192L157.823 98.3812L159.632 99.2351ZM169.332 77.3461H172.962V75.3461H169.332V77.3461ZM172.057 75.9192L161.453 98.3812L163.262 99.2351L173.866 76.7731L172.057 75.9192ZM162.358 99.8081H173.556V97.8081H162.358V99.8081ZM174.556 98.8081V89.5681H172.556V98.8081H174.556ZM173.556 90.5681H176.812V88.5681H173.556V90.5681ZM175.812 89.5681V98.8081H177.812V89.5681H175.812ZM176.812 99.8081H180.266V97.8081H176.812V99.8081ZM179.266 98.8081V101.888H181.266V98.8081H179.266ZM180.266 100.888H176.812V102.888H180.266V100.888ZM175.812 101.888V108.026H177.812V101.888H175.812ZM176.812 107.026H173.556V109.026H176.812V107.026ZM193.569 76.3461V75.3461H192.801L192.603 76.0885L193.569 76.3461ZM196.891 76.3461L197.857 76.6038L198.193 75.3461H196.891V76.3461ZM188.443 108.026V109.026H189.211L189.409 108.284L188.443 108.026ZM185.121 108.026L184.155 107.768L183.819 109.026H185.121V108.026ZM193.569 77.3461H196.891V75.3461H193.569V77.3461ZM195.925 76.0885L187.477 107.768L189.409 108.284L197.857 76.6038L195.925 76.0885ZM188.443 107.026H185.121V109.026H188.443V107.026ZM186.087 108.284L194.535 76.6038L192.603 76.0885L184.155 107.768L186.087 108.284ZM204.313 108.026L203.388 107.648L202.825 109.026H204.313V108.026ZM215.973 79.4921L216.899 79.8704L217.462 78.4921H215.973V79.4921ZM201.299 79.4921H200.299V80.4921H201.299V79.4921ZM201.299 76.3461V75.3461H200.299V76.3461H201.299ZM219.427 76.3461H220.427V75.3461H219.427V76.3461ZM219.427 79.4921L220.353 79.8698L220.427 79.6882V79.4921H219.427ZM207.789 108.026V109.026H208.462L208.715 108.404L207.789 108.026ZM205.239 108.404L216.899 79.8704L215.048 79.1139L203.388 107.648L205.239 108.404ZM215.973 78.4921H201.299V80.4921H215.973V78.4921ZM202.299 79.4921V76.3461H200.299V79.4921H202.299ZM201.299 77.3461H219.427V75.3461H201.299V77.3461ZM218.427 76.3461V79.4921H220.427V76.3461H218.427ZM218.502 79.1145L206.864 107.648L208.715 108.404L220.353 79.8698L218.502 79.1145ZM207.789 107.026H204.313V109.026H207.789V107.026ZM247.163 106.596L246.618 107.435L246.622 107.438L247.163 106.596ZM242.235 83.6061L243.147 84.0163L243.147 84.0163L242.235 83.6061ZM247.163 77.7981L247.703 78.6397L247.707 78.6371L247.163 77.7981ZM263.135 77.7981L262.588 78.6354L262.594 78.6397L263.135 77.7981ZM268.063 83.6061L267.151 84.0163L267.153 84.0208L268.063 83.6061ZM268.063 100.766L267.153 100.352L267.151 100.356L268.063 100.766ZM263.135 106.596L263.677 107.436L263.679 107.435L263.135 106.596ZM255.149 105.584L255.143 106.584H255.149V105.584ZM261.353 103.89L260.79 103.064L260.79 103.064L261.353 103.89ZM265.071 99.1821L264.146 98.8004L264.145 98.8038L265.071 99.1821ZM265.071 85.2121L264.145 85.5905L264.147 85.5963L265.071 85.2121ZM261.353 80.5041L260.79 81.3305L260.79 81.3305L261.353 80.5041ZM255.149 78.7881L255.155 77.7881H255.149V78.7881ZM248.967 80.4821L249.533 81.3062L249.533 81.3062L248.967 80.4821ZM245.249 85.2121L244.324 84.8304L244.323 84.8338L245.249 85.2121ZM245.205 99.1601L244.279 99.5385L244.282 99.5467L245.205 99.1601ZM248.945 103.868L248.377 104.691L248.382 104.695L248.945 103.868ZM255.149 107.686C252.144 107.686 249.68 107.024 247.703 105.755L246.622 107.438C248.987 108.955 251.847 109.686 255.149 109.686V107.686ZM247.707 105.757C245.706 104.459 244.187 102.669 243.147 100.356L241.323 101.176C242.512 103.821 244.278 105.917 246.618 107.435L247.707 105.757ZM243.147 100.356C242.1 98.0287 241.563 95.3129 241.563 92.1861H239.563C239.563 95.5421 240.14 98.5463 241.323 101.176L243.147 100.356ZM241.563 92.1861C241.563 89.0594 242.1 86.3436 243.147 84.0163L241.323 83.196C240.14 85.826 239.563 88.8302 239.563 92.1861H241.563ZM243.147 84.0163C244.186 81.7045 245.704 79.9226 247.703 78.6397L246.622 76.9566C244.28 78.4604 242.512 80.5505 241.323 83.196L243.147 84.0163ZM247.707 78.6371C249.683 77.3552 252.146 76.6861 255.149 76.6861V74.6861C251.845 74.6861 248.983 75.4251 246.618 76.9592L247.707 78.6371ZM255.149 76.6861C258.167 76.6861 260.628 77.3558 262.588 78.6354L263.681 76.9609C261.329 75.4245 258.466 74.6861 255.149 74.6861V76.6861ZM262.594 78.6397C264.593 79.9226 266.111 81.7045 267.151 84.0163L268.975 83.196C267.785 80.5505 266.018 78.4604 263.675 76.9566L262.594 78.6397ZM267.153 84.0208C268.212 86.3469 268.757 89.0611 268.757 92.1861H270.757C270.757 88.8286 270.171 85.8227 268.973 83.1915L267.153 84.0208ZM268.757 92.1861C268.757 95.3112 268.212 98.0254 267.153 100.352L268.973 101.181C270.171 98.5496 270.757 95.5437 270.757 92.1861H268.757ZM267.151 100.356C266.111 102.669 264.591 104.459 262.59 105.757L263.679 107.435C266.019 105.917 267.785 103.821 268.975 101.176L267.151 100.356ZM262.592 105.756C260.632 107.023 258.169 107.686 255.149 107.686V109.686C258.464 109.686 261.325 108.956 263.677 107.436L262.592 105.756ZM255.149 106.584C257.78 106.584 260.057 105.983 261.916 104.717L260.79 103.064C259.334 104.056 257.474 104.584 255.149 104.584V106.584ZM261.916 104.717C263.749 103.468 265.107 101.736 265.996 99.5605L264.145 98.8038C263.391 100.647 262.271 102.054 260.79 103.064L261.916 104.717ZM265.995 99.5639C266.89 97.3967 267.325 94.9308 267.325 92.1861H265.325C265.325 94.7215 264.923 96.9196 264.146 98.8004L265.995 99.5639ZM267.325 92.1861C267.325 89.4417 266.89 86.9821 265.994 84.828L264.147 85.5963C264.923 87.4609 265.325 89.6506 265.325 92.1861H267.325ZM265.996 84.8338C265.107 82.6584 263.749 80.9268 261.916 79.6778L260.79 81.3305C262.271 82.3402 263.391 83.7472 264.145 85.5905L265.996 84.8338ZM261.916 79.6778C260.059 78.4125 257.785 77.8037 255.155 77.7882L255.143 79.7881C257.47 79.8019 259.332 80.3371 260.79 81.3305L261.916 79.6778ZM255.149 77.7881C252.517 77.7881 250.246 78.389 248.4 79.6581L249.533 81.3062C250.972 80.3167 252.823 79.7881 255.149 79.7881V77.7881ZM248.4 79.6581C246.582 80.9078 245.227 82.6458 244.324 84.8304L246.173 85.5939C246.943 83.7305 248.066 82.3151 249.533 81.3062L248.4 79.6581ZM244.323 84.8338C243.444 86.9841 243.01 89.4396 242.995 92.1806L244.995 92.1917C245.009 89.6527 245.411 87.4589 246.174 85.5905L244.323 84.8338ZM242.995 92.1806C242.979 94.9245 243.398 97.3841 244.279 99.5385L246.13 98.7818C245.368 96.9176 244.981 94.7278 244.995 92.1917L242.995 92.1806ZM244.282 99.5467C245.187 101.704 246.55 103.43 248.377 104.691L249.513 103.045C248.024 102.018 246.895 100.606 246.127 98.7736L244.282 99.5467ZM248.382 104.695C250.238 105.96 252.512 106.569 255.143 106.584L255.155 104.584C252.828 104.57 250.966 104.035 249.508 103.042L248.382 104.695ZM291.322 108.026H290.322V109.026H291.322V108.026ZM290.948 92.2741L289.973 92.4924L289.973 92.4952L290.948 92.2741ZM289.738 89.3701L288.9 89.9146L288.905 89.9232L288.911 89.9316L289.738 89.3701ZM287.604 87.4341L287.139 88.3194L287.145 88.3226L287.604 87.4341ZM281.4 87.3461L280.99 86.4342L280.984 86.4368L281.4 87.3461ZM279.2 89.0621L278.421 88.4356L278.42 88.4375L279.2 89.0621ZM277.858 91.7461L278.818 92.0261L278.818 92.0261L277.858 91.7461ZM277.396 95.3541L277.181 96.3306L278.396 96.5995V95.3541H277.396ZM275.108 94.8481H274.108V95.6512L274.893 95.8246L275.108 94.8481ZM276.384 88.7101L277.274 89.1668L277.274 89.1668L276.384 88.7101ZM288.77 84.3321L288.386 85.2552L288.39 85.2571L288.77 84.3321ZM291.476 86.1141L290.762 86.8143L290.769 86.8213L291.476 86.1141ZM293.28 88.6881L292.375 89.1133L292.378 89.1186L293.28 88.6881ZM294.27 91.7461L293.288 91.932L293.288 91.9345L294.27 91.7461ZM294.578 108.026V109.026H295.578V108.026H294.578ZM274.14 108.026H273.14V109.026H274.14V108.026ZM274.14 84.2661V83.2661H273.14V84.2661H274.14ZM277.066 84.2661H278.066V83.2661H277.066V84.2661ZM277.066 90.1181H276.066V91.1181H277.066V90.1181ZM277.396 90.1181H278.396V89.1181H277.396V90.1181ZM277.396 108.026V109.026H278.396V108.026H277.396ZM292.322 108.026V95.9041H290.322V108.026H292.322ZM292.322 95.9041C292.322 94.522 292.192 93.2367 291.924 92.0531L289.973 92.4952C290.204 93.5116 290.322 94.6463 290.322 95.9041H292.322ZM291.924 92.0559C291.652 90.8368 291.204 89.7485 290.566 88.8086L288.911 89.9316C289.388 90.6345 289.747 91.4822 289.973 92.4924L291.924 92.0559ZM290.577 88.8257C289.941 87.8449 289.099 87.0806 288.063 86.5457L287.145 88.3226C287.87 88.697 288.451 89.2234 288.9 89.9146L290.577 88.8257ZM288.07 86.5489C287.027 86.001 285.802 85.7521 284.436 85.7521V87.7521C285.565 87.7521 286.452 87.958 287.139 88.3194L288.07 86.5489ZM284.436 85.7521C283.177 85.7521 282.021 85.9704 280.99 86.4342L281.811 88.2581C282.54 87.9299 283.408 87.7521 284.436 87.7521V85.7521ZM280.984 86.4368C279.976 86.8981 279.119 87.5674 278.421 88.4356L279.98 89.6887C280.485 89.0608 281.094 88.5862 281.817 88.2555L280.984 86.4368ZM278.42 88.4375C277.739 89.2888 277.237 90.3058 276.898 91.4661L278.818 92.0261C279.096 91.0745 279.489 90.3022 279.981 89.6868L278.42 88.4375ZM276.898 91.4661C276.559 92.631 276.396 93.9306 276.396 95.3541H278.396C278.396 94.079 278.542 92.9733 278.818 92.0261L276.898 91.4661ZM277.612 94.3777L275.324 93.8717L274.893 95.8246L277.181 96.3306L277.612 94.3777ZM276.108 94.8481C276.108 92.5253 276.515 90.6462 277.274 89.1668L275.495 88.2535C274.553 90.0887 274.108 92.3017 274.108 94.8481H276.108ZM277.274 89.1668C278.044 87.6676 279.086 86.564 280.399 85.8174L279.41 84.0789C277.731 85.0337 276.427 86.438 275.495 88.2535L277.274 89.1668ZM280.399 85.8174C281.726 85.0627 283.268 84.6721 285.052 84.6721V82.6721C282.965 82.6721 281.075 83.1322 279.41 84.0789L280.399 85.8174ZM285.052 84.6721C286.374 84.6721 287.477 84.8767 288.386 85.2552L289.155 83.4091C287.951 82.9076 286.576 82.6721 285.052 82.6721V84.6721ZM288.39 85.2571C289.349 85.651 290.134 86.1728 290.762 86.8142L292.191 85.4141C291.353 84.5595 290.333 83.8933 289.151 83.4072L288.39 85.2571ZM290.769 86.8213C291.435 87.4865 291.969 88.2489 292.375 89.1133L294.186 88.263C293.682 87.1914 293.014 86.2378 292.184 85.407L290.769 86.8213ZM292.378 89.1186C292.794 89.9907 293.098 90.9275 293.288 91.932L295.253 91.5603C295.032 90.3942 294.676 89.2922 294.183 88.2577L292.378 89.1186ZM293.288 91.9345C293.482 92.9442 293.578 93.9518 293.578 94.9581H295.578C295.578 93.8231 295.47 92.6894 295.253 91.5578L293.288 91.9345ZM293.578 94.9581V108.026H295.578V94.9581H293.578ZM294.578 107.026H291.322V109.026H294.578V107.026ZM275.14 108.026V84.2661H273.14V108.026H275.14ZM274.14 85.2661H277.066V83.2661H274.14V85.2661ZM276.066 84.2661V90.1181H278.066V84.2661H276.066ZM277.066 91.1181H277.396V89.1181H277.066V91.1181ZM276.396 90.1181V108.026H278.396V90.1181H276.396ZM277.396 107.026H274.14V109.026H277.396V107.026ZM300.727 108.026H299.727V109.026H300.727V108.026ZM300.727 75.6861V74.6861H299.727V75.6861H300.727ZM303.961 75.6861H304.961V74.6861H303.961V75.6861ZM303.961 108.026V109.026H304.961V108.026H303.961ZM301.727 108.026V75.6861H299.727V108.026H301.727ZM300.727 76.6861H303.961V74.6861H300.727V76.6861ZM302.961 75.6861V108.026H304.961V75.6861H302.961ZM303.961 107.026H300.727V109.026H303.961V107.026ZM310.997 79.7561H309.997V80.7561H310.997V79.7561ZM310.997 76.1261V75.1261H309.997V76.1261H310.997ZM314.231 76.1261H315.231V75.1261H314.231V76.1261ZM314.231 79.7561V80.7561H315.231V79.7561H314.231ZM310.997 108.026H309.997V109.026H310.997V108.026ZM310.997 84.2661V83.2661H309.997V84.2661H310.997ZM314.231 84.2661H315.231V83.2661H314.231V84.2661ZM314.231 108.026V109.026H315.231V108.026H314.231ZM311.997 79.7561V76.1261H309.997V79.7561H311.997ZM310.997 77.1261H314.231V75.1261H310.997V77.1261ZM313.231 76.1261V79.7561H315.231V76.1261H313.231ZM314.231 78.7561H310.997V80.7561H314.231V78.7561ZM311.997 108.026V84.2661H309.997V108.026H311.997ZM310.997 85.2661H314.231V83.2661H310.997V85.2661ZM313.231 84.2661V108.026H315.231V84.2661H313.231ZM314.231 107.026H310.997V109.026H314.231V107.026ZM337.987 108.026H336.987V109.026H337.987V108.026ZM337.613 92.2741L336.637 92.4924L336.637 92.4952L337.613 92.2741ZM336.403 89.3701L335.564 89.9146L335.569 89.9232L335.575 89.9316L336.403 89.3701ZM334.269 87.4341L333.803 88.3194L333.81 88.3226L334.269 87.4341ZM328.065 87.3461L327.654 86.4342L327.648 86.4368L328.065 87.3461ZM325.865 89.0621L325.085 88.4356L325.084 88.4375L325.865 89.0621ZM324.523 91.7461L325.483 92.0261L325.483 92.0261L324.523 91.7461ZM324.061 95.3541L323.845 96.3306L325.061 96.5995V95.3541H324.061ZM321.773 94.8481H320.773V95.6512L321.557 95.8246L321.773 94.8481ZM323.049 88.7101L323.938 89.1668L323.938 89.1668L323.049 88.7101ZM335.435 84.3321L335.05 85.2552L335.054 85.2571L335.435 84.3321ZM338.141 86.1141L337.426 86.8143L337.433 86.8213L338.141 86.1141ZM339.945 88.6881L339.039 89.1133L339.042 89.1186L339.945 88.6881ZM340.935 91.7461L339.952 91.932L339.952 91.9345L340.935 91.7461ZM341.243 108.026V109.026H342.243V108.026H341.243ZM320.805 108.026H319.805V109.026H320.805V108.026ZM320.805 84.2661V83.2661H319.805V84.2661H320.805ZM323.731 84.2661H324.731V83.2661H323.731V84.2661ZM323.731 90.1181H322.731V91.1181H323.731V90.1181ZM324.061 90.1181H325.061V89.1181H324.061V90.1181ZM324.061 108.026V109.026H325.061V108.026H324.061ZM338.987 108.026V95.9041H336.987V108.026H338.987ZM338.987 95.9041C338.987 94.522 338.856 93.2367 338.588 92.0531L336.637 92.4952C336.868 93.5116 336.987 94.6463 336.987 95.9041H338.987ZM338.588 92.0559C338.316 90.8368 337.868 89.7485 337.23 88.8086L335.575 89.9316C336.052 90.6345 336.411 91.4822 336.637 92.4924L338.588 92.0559ZM337.241 88.8257C336.605 87.8449 335.763 87.0806 334.728 86.5457L333.81 88.3226C334.534 88.697 335.115 89.2234 335.564 89.9146L337.241 88.8257ZM334.734 86.5489C333.691 86.001 332.466 85.7521 331.101 85.7521V87.7521C332.229 87.7521 333.116 87.958 333.803 88.3194L334.734 86.5489ZM331.101 85.7521C329.841 85.7521 328.685 85.9704 327.654 86.4342L328.475 88.2581C329.204 87.9299 330.072 87.7521 331.101 87.7521V85.7521ZM327.648 86.4368C326.64 86.8981 325.783 87.5674 325.085 88.4356L326.644 89.6887C327.149 89.0608 327.758 88.5862 328.481 88.2555L327.648 86.4368ZM325.084 88.4375C324.403 89.2888 323.901 90.3058 323.563 91.4661L325.483 92.0261C325.76 91.0745 326.153 90.3022 326.645 89.6868L325.084 88.4375ZM323.563 91.4661C323.223 92.631 323.061 93.9306 323.061 95.3541H325.061C325.061 94.079 325.206 92.9733 325.483 92.0261L323.563 91.4661ZM324.276 94.3777L321.988 93.8717L321.557 95.8246L323.845 96.3306L324.276 94.3777ZM322.773 94.8481C322.773 92.5253 323.179 90.6462 323.938 89.1668L322.159 88.2535C321.217 90.0887 320.773 92.3017 320.773 94.8481H322.773ZM323.938 89.1668C324.708 87.6676 325.75 86.564 327.063 85.8174L326.074 84.0789C324.395 85.0337 323.091 86.438 322.159 88.2535L323.938 89.1668ZM327.063 85.8174C328.39 85.0627 329.932 84.6721 331.717 84.6721V82.6721C329.629 82.6721 327.739 83.1322 326.074 84.0789L327.063 85.8174ZM331.717 84.6721C333.038 84.6721 334.142 84.8767 335.05 85.2552L335.819 83.4091C334.615 82.9076 333.24 82.6721 331.717 82.6721V84.6721ZM335.054 85.2571C336.013 85.651 336.798 86.1728 337.426 86.8142L338.855 85.4141C338.017 84.5595 336.997 83.8933 335.815 83.4072L335.054 85.2571ZM337.433 86.8213C338.099 87.4865 338.633 88.2489 339.039 89.1133L340.85 88.263C340.346 87.1914 339.678 86.2378 338.848 85.407L337.433 86.8213ZM339.042 89.1186C339.458 89.9907 339.762 90.9275 339.952 91.932L341.917 91.5603C341.696 90.3942 341.341 89.2922 340.847 88.2577L339.042 89.1186ZM339.952 91.9345C340.146 92.9442 340.243 93.9518 340.243 94.9581H342.243C342.243 93.8231 342.134 92.6894 341.917 91.5578L339.952 91.9345ZM340.243 94.9581V108.026H342.243V94.9581H340.243ZM341.243 107.026H337.987V109.026H341.243V107.026ZM321.805 108.026V84.2661H319.805V108.026H321.805ZM320.805 85.2661H323.731V83.2661H320.805V85.2661ZM322.731 84.2661V90.1181H324.731V84.2661H322.731ZM323.731 91.1181H324.061V89.1181H323.731V91.1181ZM323.061 90.1181V108.026H325.061V90.1181H323.061ZM324.061 107.026H320.805V109.026H324.061V107.026ZM350.849 107.146L350.329 108L350.332 108.002L350.849 107.146ZM346.911 102.812L347.804 102.362L347.804 102.362L346.911 102.812ZM346.889 89.5241L345.99 89.0853L345.99 89.0853L346.889 89.5241ZM350.783 85.1461L350.263 84.2919L350.259 84.294L350.783 85.1461ZM362.751 85.2341L362.203 86.0707L362.208 86.0741L362.751 85.2341ZM366.513 89.8541L367.433 89.4643L367.433 89.4643L366.513 89.8541ZM367.679 97.0481V98.0481H368.653L368.678 97.0745L367.679 97.0481ZM364.379 97.0481H363.379V98.0481H364.379V97.0481ZM364.379 95.9041H365.379V95.8946L365.378 95.8851L364.379 95.9041ZM362.377 88.9301L361.597 89.5566L361.601 89.561L362.377 88.9301ZM350.959 89.0621L350.186 88.4267L350.183 88.4308L350.959 89.0621ZM350.959 103.12L350.183 103.752L350.189 103.759L350.959 103.12ZM361.189 104.418L361.713 105.269L361.716 105.268L361.189 104.418ZM364.203 101.008L364.563 100.076L363.712 99.746L363.306 100.564L364.203 101.008ZM367.217 102.174L368.127 102.587L368.565 101.623L367.577 101.242L367.217 102.174ZM363.059 106.992L363.586 107.842L363.588 107.841L363.059 106.992ZM347.791 97.0481H346.791V98.0481H347.791V97.0481ZM347.791 94.3421V93.3421H346.791V94.3421H347.791ZM365.941 94.3421H366.941V93.3421H365.941V94.3421ZM365.941 97.0481V98.0481H366.941V97.0481H365.941ZM356.877 107.686C354.711 107.686 352.886 107.208 351.365 106.29L350.332 108.002C352.214 109.138 354.408 109.686 356.877 109.686V107.686ZM351.369 106.292C349.851 105.368 348.663 104.068 347.804 102.362L346.018 103.262C347.035 105.282 348.473 106.871 350.329 108L351.369 106.292ZM347.804 102.362C346.948 100.665 346.503 98.6392 346.503 96.2561H344.503C344.503 98.8891 344.996 101.234 346.018 103.262L347.804 102.362ZM346.503 96.2561C346.503 93.7775 346.944 91.6902 347.787 89.963L345.99 89.0853C344.986 91.1421 344.503 93.5428 344.503 96.2561H346.503ZM347.787 89.963C348.634 88.2286 349.808 86.9183 351.306 85.9983L350.259 84.294C348.414 85.4273 346.991 87.0357 345.99 89.0853L347.787 89.963ZM351.303 86.0003C352.809 85.0833 354.61 84.6061 356.745 84.6061V82.6061C354.303 82.6061 352.129 83.1556 350.263 84.2919L351.303 86.0003ZM356.745 84.6061C358.933 84.6061 360.736 85.1104 362.203 86.0707L363.298 84.3976C361.45 83.1872 359.249 82.6061 356.745 82.6061V84.6061ZM362.208 86.0741C363.679 87.0246 364.811 88.3989 365.592 90.244L367.433 89.4643C366.513 87.2908 365.137 85.585 363.293 84.3942L362.208 86.0741ZM365.592 90.244C366.374 92.0907 366.75 94.3397 366.679 97.0218L368.678 97.0745C368.754 94.1832 368.353 91.6363 367.433 89.4643L365.592 90.244ZM367.679 96.0481H364.379V98.0481H367.679V96.0481ZM365.379 97.0481V95.9041H363.379V97.0481H365.379ZM365.378 95.8851C365.318 92.6927 364.626 90.1117 363.153 88.2993L361.601 89.561C362.679 90.8872 363.322 92.9556 363.379 95.9232L365.378 95.8851ZM363.156 88.3037C361.665 86.4484 359.5 85.5761 356.833 85.5761V87.5761C359.035 87.5761 360.566 88.2732 361.597 89.5566L363.156 88.3037ZM356.833 85.5761C354.044 85.5761 351.777 86.4942 350.186 88.4267L351.731 89.6976C352.868 88.3154 354.517 87.5761 356.833 87.5761V85.5761ZM350.183 88.4308C348.637 90.3298 347.935 92.9484 347.935 96.1461H349.935C349.935 93.2132 350.582 91.1092 351.734 89.6935L350.183 88.4308ZM347.935 96.1461C347.935 99.2775 348.64 101.856 350.183 103.752L351.734 102.489C350.578 101.069 349.935 98.9988 349.935 96.1461H347.935ZM350.189 103.759C351.776 105.67 354.009 106.584 356.745 106.584V104.584C354.493 104.584 352.869 103.856 351.728 102.481L350.189 103.759ZM356.745 106.584C358.603 106.584 360.272 106.158 361.713 105.269L360.664 103.567C359.583 104.233 358.289 104.584 356.745 104.584V106.584ZM361.716 105.268C363.166 104.368 364.291 103.083 365.099 101.452L363.306 100.564C362.647 101.896 361.763 102.885 360.661 103.569L361.716 105.268ZM363.842 101.941L366.856 103.107L367.577 101.242L364.563 100.076L363.842 101.941ZM366.306 101.761C365.444 103.659 364.187 105.11 362.529 106.144L363.588 107.841C365.597 106.587 367.111 104.825 368.127 102.587L366.306 101.761ZM362.531 106.143C360.883 107.166 359.008 107.686 356.877 107.686V109.686C359.351 109.686 361.597 109.077 363.586 107.842L362.531 106.143ZM348.791 97.0481V94.3421H346.791V97.0481H348.791ZM347.791 95.3421H365.941V93.3421H347.791V95.3421ZM364.941 94.3421V97.0481H366.941V94.3421H364.941ZM365.941 96.0481H347.791V98.0481H365.941V96.0481ZM374.761 108.026H373.761V109.026H374.761V108.026ZM374.761 104.396V103.396H373.761V104.396H374.761ZM377.995 104.396H378.995V103.396H377.995V104.396ZM377.995 108.026V109.026H378.995V108.026H377.995ZM374.761 100.106H373.761V101.106H374.761V100.106ZM374.761 76.3461V75.3461H373.761V76.3461H374.761ZM377.995 76.3461H378.995V75.3461H377.995V76.3461ZM377.995 100.106V101.106H378.995V100.106H377.995ZM375.761 108.026V104.396H373.761V108.026H375.761ZM374.761 105.396H377.995V103.396H374.761V105.396ZM376.995 104.396V108.026H378.995V104.396H376.995ZM377.995 107.026H374.761V109.026H377.995V107.026ZM375.761 100.106V76.3461H373.761V100.106H375.761ZM374.761 77.3461H377.995V75.3461H374.761V77.3461ZM376.995 76.3461V100.106H378.995V76.3461H376.995ZM377.995 99.1061H374.761V101.106H377.995V99.1061Z" fill="#000000" mask="url(#path-2-outside-1_349_12)"/>
</svg>
