<svg width="193" height="64" viewBox="0 0 193 64" fill="none" xmlns="http://www.w3.org/2000/svg">
<path d="M10.3516 34.8828C10.5599 34.9479 10.7682 34.9935 10.9766 35.0195C11.1849 35.0326 11.3932 35.0391 11.6016 35.0391C12.1224 35.0391 12.6237 34.9674 13.1055 34.8242C13.5872 34.681 14.0365 34.4792 14.4531 34.2188C14.8828 33.9453 15.2604 33.6198 15.5859 33.2422C15.9245 32.8516 16.1979 32.4219 16.4062 31.9531L20.3125 35.8789C19.8177 36.582 19.2448 37.2135 18.5938 37.7734C17.9557 38.3333 17.2591 38.8086 16.5039 39.1992C15.7617 39.5898 14.974 39.8828 14.1406 40.0781C13.3203 40.2865 12.474 40.3906 11.6016 40.3906C10.1302 40.3906 8.74349 40.1172 7.44141 39.5703C6.15234 39.0234 5.01953 38.2617 4.04297 37.2852C3.07943 36.3086 2.31771 35.1497 1.75781 33.8086C1.19792 32.4544 0.917969 30.9701 0.917969 29.3555C0.917969 27.7018 1.19792 26.1914 1.75781 24.8242C2.31771 23.457 3.07943 22.2917 4.04297 21.3281C5.01953 20.3646 6.15234 19.6159 7.44141 19.082C8.74349 18.5482 10.1302 18.2812 11.6016 18.2812C12.474 18.2812 13.3268 18.3854 14.1602 18.5938C14.9935 18.8021 15.7812 19.1016 16.5234 19.4922C17.2786 19.8828 17.9818 20.3646 18.6328 20.9375C19.2839 21.4974 19.8568 22.1289 20.3516 22.832L10.3516 34.8828ZM13.0859 23.8867C12.8385 23.7956 12.5911 23.737 12.3438 23.7109C12.1094 23.6849 11.862 23.6719 11.6016 23.6719C10.8724 23.6719 10.1823 23.8086 9.53125 24.082C8.89323 24.3424 8.33333 24.7201 7.85156 25.2148C7.38281 25.7096 7.01172 26.3086 6.73828 27.0117C6.46484 27.7018 6.32812 28.4831 6.32812 29.3555C6.32812 29.5508 6.33464 29.7721 6.34766 30.0195C6.3737 30.2669 6.40625 30.5208 6.44531 30.7812C6.4974 31.0286 6.55599 31.2695 6.62109 31.5039C6.6862 31.7383 6.77083 31.9466 6.875 32.1289L13.0859 23.8867ZM39.7852 23.2031V28.5156H23.3789V23.2031H39.7852ZM49.5898 40H44.2188V10.7617H49.5898V40ZM61.9922 34.8828C62.2005 34.9479 62.4089 34.9935 62.6172 35.0195C62.8255 35.0326 63.0339 35.0391 63.2422 35.0391C63.763 35.0391 64.2643 34.9674 64.7461 34.8242C65.2279 34.681 65.6771 34.4792 66.0938 34.2188C66.5234 33.9453 66.901 33.6198 67.2266 33.2422C67.5651 32.8516 67.8385 32.4219 68.0469 31.9531L71.9531 35.8789C71.4583 36.582 70.8854 37.2135 70.2344 37.7734C69.5964 38.3333 68.8997 38.8086 68.1445 39.1992C67.4023 39.5898 66.6146 39.8828 65.7812 40.0781C64.9609 40.2865 64.1146 40.3906 63.2422 40.3906C61.7708 40.3906 60.3841 40.1172 59.082 39.5703C57.793 39.0234 56.6602 38.2617 55.6836 37.2852C54.7201 36.3086 53.9583 35.1497 53.3984 33.8086C52.8385 32.4544 52.5586 30.9701 52.5586 29.3555C52.5586 27.7018 52.8385 26.1914 53.3984 24.8242C53.9583 23.457 54.7201 22.2917 55.6836 21.3281C56.6602 20.3646 57.793 19.6159 59.082 19.082C60.3841 18.5482 61.7708 18.2812 63.2422 18.2812C64.1146 18.2812 64.9674 18.3854 65.8008 18.5938C66.6341 18.8021 67.4219 19.1016 68.1641 19.4922C68.9193 19.8828 69.6224 20.3646 70.2734 20.9375C70.9245 21.4974 71.4974 22.1289 71.9922 22.832L61.9922 34.8828ZM64.7266 23.8867C64.4792 23.7956 64.2318 23.737 63.9844 23.7109C63.75 23.6849 63.5026 23.6719 63.2422 23.6719C62.513 23.6719 61.8229 23.8086 61.1719 24.082C60.5339 24.3424 59.974 24.7201 59.4922 25.2148C59.0234 25.7096 58.6523 26.3086 58.3789 27.0117C58.1055 27.7018 57.9688 28.4831 57.9688 29.3555C57.9688 29.5508 57.9753 29.7721 57.9883 30.0195C58.0143 30.2669 58.0469 30.5208 58.0859 30.7812C58.138 31.0286 58.1966 31.2695 58.2617 31.5039C58.3268 31.7383 58.4115 31.9466 58.5156 32.1289L64.7266 23.8867ZM94.7852 40H93.4961L91.4258 37.1289C90.918 37.5846 90.3776 38.0143 89.8047 38.418C89.2448 38.8086 88.6523 39.1536 88.0273 39.4531C87.4023 39.7396 86.7578 39.9674 86.0938 40.1367C85.4427 40.306 84.7786 40.3906 84.1016 40.3906C82.6302 40.3906 81.2435 40.1432 79.9414 39.6484C78.6523 39.1536 77.5195 38.4375 76.543 37.5C75.5794 36.5495 74.8177 35.3906 74.2578 34.0234C73.6979 32.6562 73.418 31.1003 73.418 29.3555C73.418 27.7279 73.6979 26.237 74.2578 24.8828C74.8177 23.5156 75.5794 22.3438 76.543 21.3672C77.5195 20.3906 78.6523 19.6354 79.9414 19.1016C81.2435 18.5547 82.6302 18.2812 84.1016 18.2812C84.7786 18.2812 85.4492 18.3659 86.1133 18.5352C86.7773 18.7044 87.4219 18.9388 88.0469 19.2383C88.6719 19.5378 89.2643 19.8893 89.8242 20.293C90.3971 20.6966 90.931 21.1328 91.4258 21.6016L93.4961 19.1211H94.7852V40ZM89.4141 29.3555C89.4141 28.6263 89.2708 27.9232 88.9844 27.2461C88.7109 26.556 88.3333 25.9505 87.8516 25.4297C87.3698 24.8958 86.8034 24.4727 86.1523 24.1602C85.5143 23.8346 84.8307 23.6719 84.1016 23.6719C83.3724 23.6719 82.6823 23.7956 82.0312 24.043C81.3932 24.2904 80.8333 24.6549 80.3516 25.1367C79.8828 25.6185 79.5117 26.2174 79.2383 26.9336C78.9648 27.6367 78.8281 28.444 78.8281 29.3555C78.8281 30.2669 78.9648 31.0807 79.2383 31.7969C79.5117 32.5 79.8828 33.0924 80.3516 33.5742C80.8333 34.056 81.3932 34.4206 82.0312 34.668C82.6823 34.9154 83.3724 35.0391 84.1016 35.0391C84.8307 35.0391 85.5143 34.8828 86.1523 34.5703C86.8034 34.2448 87.3698 33.8216 87.8516 33.3008C88.3333 32.7669 88.7109 32.1615 88.9844 31.4844C89.2708 30.7943 89.4141 30.0846 89.4141 29.3555ZM104.199 40H98.8672V19.082H100.156L101.914 21.5625C102.773 20.7812 103.75 20.1823 104.844 19.7656C105.938 19.3359 107.07 19.1211 108.242 19.1211H112.949V24.4336H108.242C107.682 24.4336 107.155 24.5378 106.66 24.7461C106.165 24.9544 105.736 25.2409 105.371 25.6055C105.007 25.9701 104.72 26.3997 104.512 26.8945C104.303 27.3893 104.199 27.9167 104.199 28.4766V40ZM120.762 40H115.43V19.082H116.719L118.477 21.1133C119.336 20.332 120.306 19.7331 121.387 19.3164C122.48 18.8867 123.62 18.6719 124.805 18.6719C126.081 18.6719 127.285 18.9193 128.418 19.4141C129.551 19.8958 130.54 20.5664 131.387 21.4258C132.233 22.2721 132.897 23.2682 133.379 24.4141C133.874 25.5469 134.121 26.7578 134.121 28.0469V40H128.789V28.0469C128.789 27.5 128.685 26.9857 128.477 26.5039C128.268 26.0091 127.982 25.5794 127.617 25.2148C127.253 24.8503 126.829 24.5638 126.348 24.3555C125.866 24.1471 125.352 24.043 124.805 24.043C124.245 24.043 123.717 24.1471 123.223 24.3555C122.728 24.5638 122.298 24.8503 121.934 25.2148C121.569 25.5794 121.283 26.0091 121.074 26.5039C120.866 26.9857 120.762 27.5 120.762 28.0469V40ZM144.219 13.3984C144.219 13.8932 144.121 14.3555 143.926 14.7852C143.743 15.2148 143.49 15.5924 143.164 15.918C142.839 16.2305 142.454 16.4844 142.012 16.6797C141.582 16.862 141.12 16.9531 140.625 16.9531C140.13 16.9531 139.661 16.862 139.219 16.6797C138.789 16.4844 138.411 16.2305 138.086 15.918C137.773 15.5924 137.52 15.2148 137.324 14.7852C137.142 14.3555 137.051 13.8932 137.051 13.3984C137.051 12.9167 137.142 12.4609 137.324 12.0312C137.52 11.5885 137.773 11.2109 138.086 10.8984C138.411 10.5729 138.789 10.319 139.219 10.1367C139.661 9.94141 140.13 9.84375 140.625 9.84375C141.12 9.84375 141.582 9.94141 142.012 10.1367C142.454 10.319 142.839 10.5729 143.164 10.8984C143.49 11.2109 143.743 11.5885 143.926 12.0312C144.121 12.4609 144.219 12.9167 144.219 13.3984ZM143.301 40H137.93V19.082H143.301V40ZM152.715 40H147.383V19.082H148.672L150.43 21.1133C151.289 20.332 152.259 19.7331 153.34 19.3164C154.434 18.8867 155.573 18.6719 156.758 18.6719C158.034 18.6719 159.238 18.9193 160.371 19.4141C161.504 19.8958 162.493 20.5664 163.34 21.4258C164.186 22.2721 164.85 23.2682 165.332 24.4141C165.827 25.5469 166.074 26.7578 166.074 28.0469V40H160.742V28.0469C160.742 27.5 160.638 26.9857 160.43 26.5039C160.221 26.0091 159.935 25.5794 159.57 25.2148C159.206 24.8503 158.783 24.5638 158.301 24.3555C157.819 24.1471 157.305 24.043 156.758 24.043C156.198 24.043 155.671 24.1471 155.176 24.3555C154.681 24.5638 154.251 24.8503 153.887 25.2148C153.522 25.5794 153.236 26.0091 153.027 26.5039C152.819 26.9857 152.715 27.5 152.715 28.0469V40ZM184.766 29.3555C184.766 28.6263 184.622 27.9232 184.336 27.2461C184.062 26.556 183.685 25.9505 183.203 25.4297C182.721 24.8958 182.155 24.4727 181.504 24.1602C180.866 23.8346 180.182 23.6719 179.453 23.6719C178.724 23.6719 178.034 23.7956 177.383 24.043C176.745 24.2904 176.185 24.6549 175.703 25.1367C175.234 25.6185 174.863 26.2174 174.59 26.9336C174.316 27.6367 174.18 28.444 174.18 29.3555C174.18 30.2279 174.316 31.0156 174.59 31.7188C174.863 32.4089 175.234 33.0013 175.703 33.4961C176.185 33.9909 176.745 34.375 177.383 34.6484C178.034 34.9089 178.724 35.0391 179.453 35.0391C180.182 35.0391 180.866 34.8828 181.504 34.5703C182.155 34.2448 182.721 33.8216 183.203 33.3008C183.685 32.7669 184.062 32.1615 184.336 31.4844C184.622 30.7943 184.766 30.0846 184.766 29.3555ZM190.137 37.3633C190.137 38.8346 189.857 40.2148 189.297 41.5039C188.737 42.793 187.969 43.9193 186.992 44.8828C186.029 45.8464 184.896 46.6081 183.594 47.168C182.305 47.7279 180.924 48.0078 179.453 48.0078L176.777 47.9688V42.6367L179.414 42.6758C180.247 42.6758 180.957 42.5651 181.543 42.3438C182.129 42.1354 182.624 41.8424 183.027 41.4648C183.431 41.1003 183.75 40.6771 183.984 40.1953C184.232 39.7135 184.427 39.2057 184.57 38.6719C184.362 39.0104 184.062 39.2904 183.672 39.5117C183.281 39.7201 182.845 39.8893 182.363 40.0195C181.895 40.1628 181.4 40.2604 180.879 40.3125C180.371 40.3646 179.896 40.3906 179.453 40.3906C177.982 40.3906 176.595 40.1367 175.293 39.6289C174.004 39.1211 172.871 38.3984 171.895 37.4609C170.931 36.5104 170.169 35.3516 169.609 33.9844C169.049 32.6172 168.77 31.0742 168.77 29.3555C168.77 27.7799 169.049 26.3151 169.609 24.9609C170.169 23.6068 170.931 22.4349 171.895 21.4453C172.871 20.4557 174.004 19.681 175.293 19.1211C176.595 18.5612 177.982 18.2812 179.453 18.2812C180.13 18.2812 180.801 18.3659 181.465 18.5352C182.129 18.7044 182.773 18.9388 183.398 19.2383C184.023 19.5378 184.616 19.8893 185.176 20.293C185.749 20.6966 186.283 21.1328 186.777 21.6016L188.848 19.1211H190.137V37.3633Z" fill="white"/>
</svg>
